M48
; DRILL file {KiCad 9.0.7} date 2026-02-02T11:08:42-0500
; FORMAT={-:-/ absolute / metric / decimal}
; #@! TF.CreationDate,2026-02-02T11:08:42-05:00
; #@! TF.GenerationSoftware,Kicad,Pcbnew,9.0.7
; #@! TF.FileFunction,Plated,1,2,PTH
FMAT,2
METRIC
; #@! TA.AperFunction,Plated,PTH,ViaDrill
T1C0.300
; #@! TA.AperFunction,Plated,PTH,ComponentDrill
T2C0.600
%
G90
G05
T1
X1.007Y12.807
X1.507Y0.507
X2.007Y1.807
X2.907Y1.807
X3.307Y12.907
X6.207Y1.807
X6.307Y12.807
X6.557Y0.607
X7.207Y12.807
X7.207Y1.807
X9.257Y14.807
X9.457Y4.157
X9.907Y1.057
X10.657Y2.207
X12.207Y14.857
X12.857Y9.057
X12.857Y8.307
X13.107Y7.407
X13.107Y6.707
X13.107Y5.057
X13.257Y5.857
X13.307Y1.007
X13.647Y3.957
X15.907Y2.357
X16.407Y9.907
X16.407Y9.107
X16.907Y12.307
X16.957Y1.007
X20.157Y15.007
X21.957Y13.707
T2
G00X3.297Y11.727
M15
G01X2.697Y11.727
M16
G05
G00X3.297Y3.087
M15
G01X2.697Y3.087
M16
G05
G00X7.727Y11.727
M15
G01X6.627Y11.727
M16
G05
G00X7.727Y3.087
M15
G01X6.627Y3.087
M16
G05
M30
