%TF.GenerationSoftware,KiCad,Pcbnew,9.0.7*%
%TF.CreationDate,2026-01-31T19:55:17-05:00*%
%TF.ProjectId,LDORegulator,4c444f52-6567-4756-9c61-746f722e6b69,rev?*%
%TF.SameCoordinates,PX737bb1ePY5e3ad43*%
%TF.FileFunction,Legend,Top*%
%TF.FilePolarity,Positive*%
%FSLAX46Y46*%
G04 Gerber Fmt 4.6, Leading zero omitted, Abs format (unit mm)*
G04 Created by KiCad (PCBNEW 9.0.7) date 2026-01-31 19:55:17*
%MOMM*%
%LPD*%
G01*
G04 APERTURE LIST*
%ADD10C,0.250000*%
%ADD11C,0.150000*%
%ADD12C,0.120000*%
G04 APERTURE END LIST*
D10*
G36*
X10591277Y1557893D02*
G01*
X10922226Y1557893D01*
X10826482Y1464409D01*
X10826482Y1171623D01*
X10859455Y1167959D01*
X10859455Y1459158D01*
X10935781Y1534751D01*
X10952390Y1519852D01*
X10881132Y1449388D01*
X10881132Y1167043D01*
X10901831Y1166005D01*
X11003497Y1163197D01*
X11123848Y1167043D01*
X11123848Y1478697D01*
X11037447Y1557893D01*
X11362840Y1557893D01*
X11265692Y1464348D01*
X11265692Y751770D01*
X11351543Y674711D01*
X11026945Y674711D01*
X11123848Y757998D01*
X11123848Y1045960D01*
X11067700Y1037223D01*
X11007588Y1034236D01*
X10888642Y1038999D01*
X10881132Y1039427D01*
X10881132Y751647D01*
X10996170Y620000D01*
X10637988Y620000D01*
X10615762Y639540D01*
X10949886Y639540D01*
X10859455Y740534D01*
X10859455Y1059393D01*
X10881315Y1058355D01*
X11011680Y1053776D01*
X11074486Y1057719D01*
X11123848Y1068430D01*
X11123848Y1089435D01*
X11058814Y1083377D01*
X10976203Y1081131D01*
X10909036Y1082963D01*
X10839977Y1088519D01*
X10826482Y1089618D01*
X10826482Y751831D01*
X10917280Y674711D01*
X10591154Y674711D01*
X10685921Y757937D01*
X10685921Y1055363D01*
X10651858Y1050284D01*
X10622647Y1035359D01*
X10596955Y1009568D01*
X10578942Y1018116D01*
X10609723Y1048289D01*
X10644958Y1067375D01*
X10685921Y1076246D01*
X10685921Y1097984D01*
X10639775Y1091331D01*
X10600896Y1071968D01*
X10567402Y1038877D01*
X10554335Y1047670D01*
X10579408Y1095160D01*
X10609426Y1129524D01*
X10644571Y1153055D01*
X10685921Y1166799D01*
X10685921Y1471858D01*
X10591277Y1557893D01*
G37*
G36*
X11389340Y1517532D02*
G01*
X11318998Y1449327D01*
X11318998Y750609D01*
X11434769Y620000D01*
X11075183Y620000D01*
X11053811Y639540D01*
X11387142Y639540D01*
X11297993Y740779D01*
X11297993Y1457815D01*
X11375968Y1534995D01*
X11389340Y1517532D01*
G37*
G36*
X12248037Y1557893D02*
G01*
X12122130Y1457448D01*
X12122130Y1016651D01*
X12119753Y902881D01*
X12114253Y840369D01*
X12101940Y789819D01*
X12082868Y751770D01*
X12057301Y722136D01*
X12023518Y698100D01*
X11979855Y679633D01*
X11923993Y667459D01*
X11853096Y662987D01*
X11761948Y669757D01*
X11692581Y687987D01*
X11640311Y715518D01*
X11601587Y751647D01*
X11579857Y787177D01*
X11561885Y839727D01*
X11549278Y914772D01*
X11544434Y1018788D01*
X11544434Y1471858D01*
X11448325Y1557893D01*
X11780739Y1557893D01*
X11684935Y1464409D01*
X11684935Y1018055D01*
X11686278Y912115D01*
X11691913Y845383D01*
X11706548Y799152D01*
X11728044Y767951D01*
X11758902Y746029D01*
X11804306Y731201D01*
X11869521Y725513D01*
X11924150Y730298D01*
X11965662Y743255D01*
X11997010Y763136D01*
X12020219Y789932D01*
X12035928Y827895D01*
X12048231Y898047D01*
X12053375Y1015979D01*
X12056062Y1457509D01*
X11946458Y1557893D01*
X12248037Y1557893D01*
G37*
G36*
X12268309Y1509167D02*
G01*
X12174764Y1431558D01*
X12174764Y1007797D01*
X12169618Y865095D01*
X12157313Y780085D01*
X12141730Y734184D01*
X12111045Y689073D01*
X12071223Y653797D01*
X12020880Y627505D01*
X11957646Y610533D01*
X11878375Y604369D01*
X11793588Y610619D01*
X11725135Y627889D01*
X11669947Y654676D01*
X11625645Y690526D01*
X11632117Y689365D01*
X11656053Y675016D01*
X11713919Y647711D01*
X11784572Y630207D01*
X11870865Y623908D01*
X11947178Y629672D01*
X12007352Y645447D01*
X12054600Y669697D01*
X12091372Y701976D01*
X12119138Y742977D01*
X12134691Y788715D01*
X12146757Y870093D01*
X12151744Y1002973D01*
X12151744Y1441572D01*
X12255853Y1526691D01*
X12268309Y1509167D01*
G37*
G36*
X11807117Y1518875D02*
G01*
X11739584Y1450731D01*
X11739584Y943378D01*
X11738913Y896361D01*
X11759979Y809777D01*
X11780012Y784012D01*
X11819330Y747068D01*
X11821711Y736565D01*
X11783336Y756620D01*
X11756135Y779963D01*
X11737997Y806663D01*
X11726809Y837778D01*
X11718932Y882667D01*
X11715893Y945454D01*
X11715893Y1459219D01*
X11795333Y1536461D01*
X11807117Y1518875D01*
G37*
G36*
X13085362Y1536583D02*
G01*
X12951884Y1274327D01*
X12937371Y1347558D01*
X12914474Y1402563D01*
X12884412Y1443221D01*
X12844979Y1473938D01*
X12797819Y1492680D01*
X12740675Y1499275D01*
X12679125Y1492792D01*
X12626718Y1474223D01*
X12581498Y1443796D01*
X12542288Y1400295D01*
X12513128Y1349917D01*
X12490955Y1288359D01*
X12476583Y1213426D01*
X12471397Y1122530D01*
X12477838Y1019176D01*
X12495443Y937001D01*
X12522250Y872125D01*
X12557225Y821357D01*
X12600357Y782370D01*
X12652662Y753900D01*
X12716071Y735872D01*
X12793248Y729421D01*
X12901264Y729421D01*
X12901264Y1081131D01*
X12731088Y1081131D01*
X12678857Y1082737D01*
X12650305Y1086443D01*
X12626465Y1094767D01*
X12602067Y1110135D01*
X12602067Y1131140D01*
X12629662Y1114630D01*
X12653724Y1106105D01*
X12681870Y1102311D01*
X12733103Y1100670D01*
X12901264Y1100670D01*
X12901264Y1131934D01*
X12713319Y1131934D01*
X12682545Y1131934D01*
X12632903Y1137990D01*
X12602458Y1153359D01*
X12585074Y1176621D01*
X12578864Y1210274D01*
X12583348Y1238759D01*
X12596449Y1262481D01*
X12616193Y1279050D01*
X12638886Y1284341D01*
X12656141Y1280872D01*
X12671310Y1270236D01*
X12681773Y1254826D01*
X12685232Y1236897D01*
X12682189Y1216790D01*
X12674375Y1204944D01*
X12661845Y1198795D01*
X12645420Y1195253D01*
X12638764Y1190002D01*
X12642354Y1185200D01*
X12659342Y1182736D01*
X12682545Y1182736D01*
X13138302Y1182736D01*
X13041093Y1090290D01*
X13041093Y756410D01*
X13131646Y674711D01*
X12777555Y674711D01*
X12708557Y674711D01*
X12625564Y680570D01*
X12564392Y696082D01*
X12509036Y724402D01*
X12448988Y771858D01*
X12399874Y825244D01*
X12361797Y884814D01*
X12334164Y951435D01*
X12317020Y1026337D01*
X12311051Y1111051D01*
X12316862Y1199401D01*
X12333409Y1276263D01*
X12359791Y1343371D01*
X12395708Y1402154D01*
X12441477Y1453662D01*
X12501712Y1501363D01*
X12566130Y1534790D01*
X12635750Y1554929D01*
X12711976Y1561801D01*
X12783923Y1556005D01*
X12872383Y1536705D01*
X12956999Y1515703D01*
X12993405Y1510998D01*
X13036098Y1516963D01*
X13085362Y1536583D01*
G37*
G36*
X13124441Y1486025D02*
G01*
X13005922Y1252467D01*
X12985894Y1261626D01*
X13105268Y1496039D01*
X13124441Y1486025D01*
G37*
G36*
X12905172Y1381428D02*
G01*
X12889724Y1393395D01*
X12835858Y1428199D01*
X12789526Y1446721D01*
X12748857Y1452380D01*
X12699723Y1446217D01*
X12655814Y1428049D01*
X12615683Y1397120D01*
X12591725Y1367865D01*
X12572135Y1332389D01*
X12557065Y1289653D01*
X12544121Y1217818D01*
X12539052Y1113921D01*
X12542721Y1020726D01*
X12552365Y951639D01*
X12566224Y901735D01*
X12588653Y855713D01*
X12621671Y811564D01*
X12666791Y768867D01*
X12666791Y756960D01*
X12616486Y794397D01*
X12577563Y839401D01*
X12548944Y892881D01*
X12530771Y951726D01*
X12518514Y1028485D01*
X12513956Y1127171D01*
X12518454Y1210258D01*
X12530911Y1278780D01*
X12550084Y1335051D01*
X12575200Y1381061D01*
X12609406Y1421249D01*
X12648734Y1449125D01*
X12694169Y1466034D01*
X12747452Y1471920D01*
X12793694Y1466778D01*
X12834641Y1451774D01*
X12871555Y1426681D01*
X12905172Y1390159D01*
X12905172Y1381428D01*
G37*
G36*
X13165352Y1144695D02*
G01*
X13094399Y1073682D01*
X13094399Y754151D01*
X13210170Y619939D01*
X12934665Y623908D01*
X12688712Y620000D01*
X12652991Y621344D01*
X12610123Y633311D01*
X12560607Y662987D01*
X12581306Y662987D01*
X12613210Y650740D01*
X12654614Y642566D01*
X12707763Y639540D01*
X12741896Y643448D01*
X13163215Y643448D01*
X13071379Y745175D01*
X13071379Y1082108D01*
X13152102Y1163685D01*
X13165352Y1144695D01*
G37*
G36*
X13907938Y1505239D02*
G01*
X13949702Y1469260D01*
X13986685Y1424472D01*
X14018981Y1369704D01*
X14050003Y1291415D01*
X14069253Y1203702D01*
X14075950Y1104884D01*
X14070948Y1015454D01*
X14056635Y936325D01*
X14033791Y866143D01*
X14002817Y803739D01*
X13963721Y748167D01*
X13915611Y698848D01*
X13862894Y661245D01*
X13804932Y634360D01*
X13740713Y617879D01*
X13668920Y612185D01*
X13612110Y616984D01*
X13557104Y631365D01*
X13503170Y655705D01*
X13449712Y690892D01*
X13449712Y699257D01*
X13494889Y670216D01*
X13545055Y649216D01*
X13601091Y636232D01*
X13664096Y631724D01*
X13730960Y637066D01*
X13791383Y652598D01*
X13846516Y678055D01*
X13897241Y713814D01*
X13944120Y760868D01*
X13982652Y813990D01*
X14012919Y872726D01*
X14035055Y937842D01*
X14048820Y1010310D01*
X14053602Y1091267D01*
X14047647Y1190267D01*
X14030662Y1277069D01*
X14003593Y1353401D01*
X13964460Y1423456D01*
X13917039Y1478822D01*
X13860956Y1521440D01*
X13860956Y1533163D01*
X13907938Y1505239D01*
G37*
G36*
X13702352Y1463318D02*
G01*
X13739579Y1449948D01*
X13771201Y1428148D01*
X13798124Y1397059D01*
X13778524Y1409516D01*
X13733843Y1432204D01*
X13694483Y1444612D01*
X13659333Y1448472D01*
X13616957Y1442735D01*
X13581202Y1426103D01*
X13550349Y1397880D01*
X13523812Y1355433D01*
X13502228Y1294546D01*
X13487311Y1209790D01*
X13481646Y1094748D01*
X13487585Y984773D01*
X13503570Y899721D01*
X13527381Y834841D01*
X13557626Y786112D01*
X13593876Y750426D01*
X13585144Y740595D01*
X13542662Y777501D01*
X13509768Y820468D01*
X13485737Y870288D01*
X13470601Y924314D01*
X13460361Y994836D01*
X13456550Y1085466D01*
X13462855Y1208847D01*
X13479490Y1300091D01*
X13503652Y1365981D01*
X13533522Y1412233D01*
X13568500Y1443231D01*
X13609329Y1461634D01*
X13657990Y1468012D01*
X13702352Y1463318D01*
G37*
G36*
X13710539Y1560399D02*
G01*
X13768889Y1545054D01*
X13821305Y1520041D01*
X13868752Y1485041D01*
X13911819Y1439069D01*
X13953819Y1373797D01*
X13984957Y1297162D01*
X14004705Y1207073D01*
X14011714Y1100976D01*
X14004828Y1000936D01*
X13985409Y915987D01*
X13954717Y843668D01*
X13913162Y781995D01*
X13871012Y739132D01*
X13824256Y706263D01*
X13772265Y682623D01*
X13714066Y668046D01*
X13648403Y662987D01*
X13584280Y668293D01*
X13524586Y683928D01*
X13468372Y709930D01*
X13414907Y746946D01*
X13362239Y799457D01*
X13320950Y860782D01*
X13290541Y932220D01*
X13271359Y1015627D01*
X13265572Y1098961D01*
X13416067Y1098961D01*
X13422741Y981518D01*
X13440470Y893673D01*
X13466516Y829234D01*
X13499260Y783075D01*
X13538413Y751426D01*
X13585073Y732246D01*
X13641564Y725513D01*
X13690952Y731722D01*
X13732989Y749682D01*
X13769464Y779796D01*
X13801177Y824249D01*
X13823128Y873381D01*
X13840410Y936088D01*
X13851910Y1015217D01*
X13856132Y1113982D01*
X13851687Y1228200D01*
X13840024Y1312497D01*
X13823301Y1373042D01*
X13803131Y1415194D01*
X13771813Y1454316D01*
X13735738Y1481261D01*
X13694018Y1497528D01*
X13644984Y1503183D01*
X13595067Y1497769D01*
X13552668Y1482258D01*
X13516094Y1456737D01*
X13484381Y1419970D01*
X13457419Y1369546D01*
X13435947Y1302097D01*
X13421457Y1213490D01*
X13416067Y1098961D01*
X13265572Y1098961D01*
X13264576Y1113310D01*
X13269233Y1197729D01*
X13282492Y1271621D01*
X13303533Y1336393D01*
X13331901Y1393264D01*
X13367524Y1443221D01*
X13411468Y1487219D01*
X13460340Y1521040D01*
X13514817Y1545419D01*
X13575926Y1560477D01*
X13644984Y1565709D01*
X13710539Y1560399D01*
G37*
G36*
X15388817Y663598D02*
G01*
X15334853Y586009D01*
X15283121Y497391D01*
X15278114Y488109D01*
X15258330Y498123D01*
X15311941Y590020D01*
X15365186Y668238D01*
X15369644Y675383D01*
X15388817Y663598D01*
G37*
G36*
X14924172Y1475330D02*
G01*
X14961090Y1462595D01*
X14993754Y1441572D01*
X14993754Y1432841D01*
X14981420Y1438458D01*
X14929082Y1458434D01*
X14890012Y1464104D01*
X14842251Y1458052D01*
X14803173Y1440805D01*
X14770715Y1412217D01*
X14744016Y1370192D01*
X14721753Y1305240D01*
X14705651Y1206332D01*
X14699319Y1062141D01*
X14704257Y976640D01*
X14717950Y906200D01*
X14739082Y848383D01*
X14766891Y801123D01*
X14801215Y762816D01*
X14842506Y732413D01*
X14828218Y732413D01*
X14794686Y747051D01*
X14765169Y769495D01*
X14739111Y800756D01*
X14716477Y842567D01*
X14696487Y902440D01*
X14683202Y978620D01*
X14678314Y1074597D01*
X14682192Y1187547D01*
X14692506Y1273634D01*
X14707510Y1337828D01*
X14725819Y1384542D01*
X14753896Y1426768D01*
X14788360Y1455806D01*
X14830253Y1473492D01*
X14881830Y1479735D01*
X14924172Y1475330D01*
G37*
G36*
X14935833Y1568312D02*
G01*
X14994453Y1553231D01*
X15047303Y1528638D01*
X15095316Y1494247D01*
X15139078Y1449144D01*
X15182258Y1384743D01*
X15214003Y1310058D01*
X15233992Y1223209D01*
X15241050Y1121858D01*
X15236741Y1040097D01*
X15224631Y970367D01*
X15205696Y910955D01*
X15178031Y855173D01*
X15138735Y798051D01*
X15086139Y739130D01*
X15081315Y734367D01*
X15124035Y701127D01*
X15171746Y681444D01*
X15226151Y674711D01*
X15272991Y680424D01*
X15330076Y699563D01*
X15337587Y695227D01*
X15283853Y612612D01*
X15233295Y521387D01*
X15229937Y514610D01*
X15175249Y529546D01*
X15124520Y554260D01*
X15076997Y589358D01*
X15032222Y636059D01*
X14985174Y618283D01*
X14938369Y607828D01*
X14891355Y604369D01*
X14834170Y608533D01*
X14785275Y620327D01*
X14743293Y639089D01*
X14707135Y664697D01*
X14711653Y672513D01*
X14774948Y644355D01*
X14831236Y628786D01*
X14881830Y623908D01*
X14931434Y627270D01*
X14976469Y637027D01*
X15017629Y652912D01*
X15014759Y657248D01*
X14997540Y680023D01*
X14933524Y661394D01*
X14866809Y655171D01*
X14803167Y660520D01*
X14745172Y676148D01*
X14691728Y701936D01*
X14642010Y738446D01*
X14595516Y786879D01*
X14549255Y855284D01*
X14515756Y932051D01*
X14494983Y1018686D01*
X14488404Y1108120D01*
X14636488Y1108120D01*
X14641044Y1014535D01*
X14653657Y937143D01*
X14673016Y873479D01*
X14698220Y821379D01*
X14733451Y774437D01*
X14772743Y742804D01*
X14816864Y724101D01*
X14867480Y717698D01*
X14911750Y722131D01*
X14953515Y735344D01*
X14930990Y768681D01*
X14906430Y790612D01*
X14879459Y803297D01*
X14849040Y807579D01*
X14828157Y805991D01*
X14879754Y869556D01*
X14931872Y846609D01*
X15002608Y797565D01*
X15009263Y792009D01*
X15027093Y816311D01*
X15029535Y819730D01*
X14998090Y845574D01*
X14958573Y868934D01*
X14909612Y889584D01*
X14921336Y908757D01*
X14980351Y881322D01*
X15035336Y845498D01*
X15042297Y840185D01*
X15065376Y906833D01*
X15081420Y1000135D01*
X15087543Y1127476D01*
X15080718Y1249884D01*
X15062610Y1341253D01*
X15036065Y1408084D01*
X15002795Y1455780D01*
X14963166Y1488351D01*
X14916110Y1508018D01*
X14859298Y1514906D01*
X14811153Y1509563D01*
X14770127Y1494214D01*
X14734586Y1468854D01*
X14703628Y1432142D01*
X14677198Y1381557D01*
X14656084Y1313621D01*
X14641805Y1224099D01*
X14636488Y1108120D01*
X14488404Y1108120D01*
X14487744Y1117096D01*
X14494994Y1218757D01*
X14515575Y1306220D01*
X14548365Y1381793D01*
X14593135Y1447312D01*
X14638254Y1493013D01*
X14687749Y1527911D01*
X14742229Y1552894D01*
X14802645Y1568225D01*
X14870228Y1573525D01*
X14935833Y1568312D01*
G37*
G36*
X15141339Y1501884D02*
G01*
X15182100Y1469199D01*
X15218496Y1427251D01*
X15250636Y1374711D01*
X15281475Y1299225D01*
X15300627Y1214277D01*
X15307301Y1118134D01*
X15301948Y1030914D01*
X15286352Y950743D01*
X15260927Y876639D01*
X15225695Y807765D01*
X15180294Y743465D01*
X15206991Y726401D01*
X15245769Y713017D01*
X15300462Y704570D01*
X15300462Y696937D01*
X15259551Y694250D01*
X15220216Y699162D01*
X15182949Y713973D01*
X15146772Y739679D01*
X15194953Y797733D01*
X15232853Y863533D01*
X15260709Y938188D01*
X15278164Y1023162D01*
X15284281Y1120210D01*
X15278525Y1208039D01*
X15262035Y1285519D01*
X15235579Y1354176D01*
X15199368Y1415271D01*
X15153049Y1469740D01*
X15095725Y1518143D01*
X15095725Y1526141D01*
X15141339Y1501884D01*
G37*
G36*
X16171554Y1557893D02*
G01*
X16045647Y1457448D01*
X16045647Y1016651D01*
X16043270Y902881D01*
X16037770Y840369D01*
X16025458Y789819D01*
X16006385Y751770D01*
X15980818Y722136D01*
X15947035Y698100D01*
X15903372Y679633D01*
X15847510Y667459D01*
X15776613Y662987D01*
X15685466Y669757D01*
X15616098Y687987D01*
X15563828Y715518D01*
X15525104Y751647D01*
X15503374Y787177D01*
X15485402Y839727D01*
X15472795Y914772D01*
X15467951Y1018788D01*
X15467951Y1471858D01*
X15371842Y1557893D01*
X15704256Y1557893D01*
X15608452Y1464409D01*
X15608452Y1018055D01*
X15609795Y912115D01*
X15615430Y845383D01*
X15630065Y799152D01*
X15651561Y767951D01*
X15682419Y746029D01*
X15727823Y731201D01*
X15793039Y725513D01*
X15847667Y730298D01*
X15889179Y743255D01*
X15920527Y763136D01*
X15943736Y789932D01*
X15959445Y827895D01*
X15971748Y898047D01*
X15976892Y1015979D01*
X15979579Y1457509D01*
X15869975Y1557893D01*
X16171554Y1557893D01*
G37*
G36*
X16191826Y1509167D02*
G01*
X16098281Y1431558D01*
X16098281Y1007797D01*
X16093135Y865095D01*
X16080830Y780085D01*
X16065247Y734184D01*
X16034562Y689073D01*
X15994740Y653797D01*
X15944397Y627505D01*
X15881164Y610533D01*
X15801892Y604369D01*
X15717105Y610619D01*
X15648652Y627889D01*
X15593464Y654676D01*
X15549162Y690526D01*
X15555635Y689365D01*
X15579570Y675016D01*
X15637436Y647711D01*
X15708089Y630207D01*
X15794382Y623908D01*
X15870695Y629672D01*
X15930869Y645447D01*
X15978118Y669697D01*
X16014889Y701976D01*
X16042655Y742977D01*
X16058208Y788715D01*
X16070275Y870093D01*
X16075261Y1002973D01*
X16075261Y1441572D01*
X16179370Y1526691D01*
X16191826Y1509167D01*
G37*
G36*
X15730635Y1518875D02*
G01*
X15663101Y1450731D01*
X15663101Y943378D01*
X15662430Y896361D01*
X15683496Y809777D01*
X15703529Y784012D01*
X15742847Y747068D01*
X15745228Y736565D01*
X15706853Y756620D01*
X15679652Y779963D01*
X15661514Y806663D01*
X15650326Y837778D01*
X15642449Y882667D01*
X15639410Y945454D01*
X15639410Y1459219D01*
X15718850Y1536461D01*
X15730635Y1518875D01*
G37*
G36*
X16795533Y1475034D02*
G01*
X16906359Y1180355D01*
X16930172Y1193605D01*
X16829239Y1462211D01*
X16903367Y1547391D01*
X16924921Y1538231D01*
X16854945Y1457265D01*
X16949223Y1206122D01*
X16956550Y1212045D01*
X16979204Y1231279D01*
X17007414Y1257474D01*
X17031378Y1178850D01*
X17064628Y1110745D01*
X17032327Y1112394D01*
X16973203Y1106688D01*
X16939759Y1092977D01*
X17062674Y757631D01*
X17169164Y674711D01*
X16813241Y674711D01*
X16910511Y757021D01*
X16836261Y953453D01*
X16769529Y878211D01*
X16722444Y809777D01*
X16702843Y814906D01*
X16751331Y884501D01*
X16824598Y967863D01*
X16829239Y973786D01*
X16817821Y1000592D01*
X16768114Y953865D01*
X16723574Y901136D01*
X16684036Y841956D01*
X16670054Y864610D01*
X16579317Y994303D01*
X16574494Y1000103D01*
X16543909Y922374D01*
X16527996Y861284D01*
X16523325Y813563D01*
X16527205Y772977D01*
X16537857Y741389D01*
X16558588Y707816D01*
X16608321Y642349D01*
X16625846Y620000D01*
X16252032Y620000D01*
X16234935Y639540D01*
X16582859Y639540D01*
X16573822Y650836D01*
X16533672Y704065D01*
X16514471Y737115D01*
X16504031Y769898D01*
X16500305Y809960D01*
X16505058Y856688D01*
X16522181Y924246D01*
X16556725Y1019093D01*
X16529553Y1047609D01*
X16508182Y985937D01*
X16485650Y915840D01*
X16471359Y861768D01*
X16467332Y823027D01*
X16470774Y787054D01*
X16480094Y759952D01*
X16497519Y733486D01*
X16534438Y691075D01*
X16549764Y674711D01*
X16195734Y674711D01*
X16261484Y715485D01*
X16314707Y762052D01*
X16356873Y814601D01*
X16390754Y874061D01*
X16428294Y959957D01*
X16469591Y1079177D01*
X16472034Y1087603D01*
X16447118Y1103767D01*
X16412765Y1116318D01*
X16366338Y1124362D01*
X16369195Y1129308D01*
X16558496Y1129308D01*
X16607048Y1075715D01*
X16647339Y1024161D01*
X16678663Y980259D01*
X16684159Y973054D01*
X16689166Y978671D01*
X16698813Y990517D01*
X16705408Y998394D01*
X16654304Y1067958D01*
X16594277Y1131689D01*
X16596954Y1138772D01*
X16622670Y1138772D01*
X16628899Y1131201D01*
X16656742Y1099816D01*
X16714323Y1022757D01*
X16719635Y1014636D01*
X16749618Y1049083D01*
X16786863Y1085344D01*
X16695577Y1331419D01*
X16622670Y1138772D01*
X16596954Y1138772D01*
X16681899Y1363537D01*
X16664802Y1410492D01*
X16558496Y1129308D01*
X16369195Y1129308D01*
X16401266Y1184820D01*
X16426910Y1246972D01*
X16440771Y1233905D01*
X16471484Y1205084D01*
X16506838Y1175836D01*
X16517707Y1202398D01*
X16510563Y1208382D01*
X16453227Y1256925D01*
X16445594Y1262909D01*
X16458722Y1280983D01*
X16528087Y1226333D01*
X16619556Y1477781D01*
X16544879Y1557893D01*
X16868623Y1557893D01*
X16795533Y1475034D01*
G37*
G36*
X17068230Y1221387D02*
G01*
X17091787Y1154164D01*
X17145350Y1047364D01*
X17124406Y1050723D01*
X17068963Y1057073D01*
X17014619Y1061592D01*
X17003445Y1058539D01*
X17116652Y755800D01*
X17272540Y620000D01*
X16870882Y620000D01*
X16854701Y639540D01*
X17216425Y639540D01*
X17096990Y745908D01*
X16974441Y1072582D01*
X17000712Y1078928D01*
X17030312Y1081131D01*
X17108653Y1073987D01*
X17102363Y1085588D01*
X17064474Y1166755D01*
X17042402Y1237263D01*
X17068230Y1221387D01*
G37*
G36*
X18078297Y1557893D02*
G01*
X18022420Y1525819D01*
X17989063Y1500711D01*
X17971441Y1481140D01*
X17954020Y1445133D01*
X17942129Y1394860D01*
X17937613Y1326046D01*
X17937613Y1281715D01*
X17937613Y674711D01*
X17818972Y674711D01*
X17499747Y1297469D01*
X17499747Y932937D01*
X17499014Y902101D01*
X17507257Y803366D01*
X17520687Y760707D01*
X17541160Y727843D01*
X17568684Y702921D01*
X17581507Y691686D01*
X17546057Y709572D01*
X17517993Y736875D01*
X17496476Y775317D01*
X17482074Y828045D01*
X17476666Y899292D01*
X17477337Y963894D01*
X17477337Y1338502D01*
X17444364Y1402555D01*
X17444364Y1016101D01*
X17448169Y887918D01*
X17457267Y811523D01*
X17468728Y770393D01*
X17490313Y737426D01*
X17526932Y709210D01*
X17583522Y685946D01*
X17646475Y620000D01*
X17270586Y620000D01*
X17256969Y639540D01*
X17598543Y639540D01*
X17566608Y674711D01*
X17249092Y676665D01*
X17301055Y701998D01*
X17336104Y729413D01*
X17358086Y758791D01*
X17371459Y793947D01*
X17381245Y849323D01*
X17385136Y932265D01*
X17385136Y1479308D01*
X17290858Y1557893D01*
X17648307Y1557893D01*
X17547374Y1490421D01*
X17873560Y852459D01*
X17873560Y926342D01*
X17589506Y1480895D01*
X17687936Y1547513D01*
X17703689Y1531759D01*
X17618449Y1474118D01*
X17873560Y972077D01*
X17873560Y1284402D01*
X17873560Y1320550D01*
X17870623Y1400936D01*
X17863507Y1450330D01*
X17854326Y1478209D01*
X17837782Y1501160D01*
X17805730Y1527466D01*
X17751561Y1557893D01*
X18078297Y1557893D01*
G37*
G36*
X18097958Y1508067D02*
G01*
X18083060Y1483277D01*
X18049847Y1471925D01*
X18026978Y1456915D01*
X18012046Y1438519D01*
X17999163Y1399961D01*
X17993606Y1328061D01*
X17993606Y620000D01*
X17843640Y620000D01*
X17832527Y639540D01*
X17971257Y639540D01*
X17971257Y1321222D01*
X17974889Y1386171D01*
X17984021Y1429249D01*
X17996598Y1456471D01*
X18016742Y1477559D01*
X18049054Y1495045D01*
X18097958Y1508067D01*
G37*
G36*
X674973Y1507893D02*
G01*
X1011296Y1507893D01*
X912133Y1411600D01*
X912133Y684184D01*
X915736Y684184D01*
X940465Y683329D01*
X944434Y682535D01*
X944434Y1406410D01*
X1020455Y1483163D01*
X1032240Y1464784D01*
X965439Y1396640D01*
X965439Y681925D01*
X1022226Y679421D01*
X1092707Y685533D01*
X1145687Y701994D01*
X1185197Y727110D01*
X1215666Y762842D01*
X1241256Y816084D01*
X1260668Y892401D01*
X1311286Y762766D01*
X1356918Y677325D01*
X1397749Y624711D01*
X674668Y624711D01*
X772304Y707753D01*
X772304Y1418439D01*
X674973Y1507893D01*
G37*
G36*
X1462412Y631244D02*
G01*
X1430478Y570000D01*
X715457Y570000D01*
X694085Y589540D01*
X1420525Y589540D01*
X1439392Y630695D01*
X1393140Y694339D01*
X1353233Y763133D01*
X1319591Y837507D01*
X1315378Y849048D01*
X1342001Y839034D01*
X1347069Y826578D01*
X1397489Y728368D01*
X1456123Y639060D01*
X1462412Y631244D01*
G37*
G36*
X2128094Y1385206D02*
G01*
X2163239Y1344796D01*
X2191800Y1294897D01*
X2213551Y1233793D01*
X2227662Y1159303D01*
X2232754Y1068867D01*
X2225950Y957727D01*
X2206944Y864836D01*
X2177319Y787283D01*
X2137890Y722632D01*
X2088651Y669041D01*
X2044287Y636574D01*
X1988501Y609608D01*
X1919050Y588713D01*
X1833245Y574990D01*
X1728026Y570000D01*
X1487203Y570000D01*
X1474441Y589540D01*
X1728026Y589540D01*
X1823292Y593489D01*
X1899570Y604241D01*
X1959955Y620378D01*
X2007196Y640831D01*
X2067393Y681030D01*
X2116727Y731206D01*
X2156176Y792433D01*
X2185834Y866575D01*
X2204903Y956156D01*
X2211749Y1064226D01*
X2204893Y1171052D01*
X2186139Y1256084D01*
X2157521Y1323363D01*
X2120036Y1376185D01*
X2092742Y1406349D01*
X2085964Y1417279D01*
X2128094Y1385206D01*
G37*
G36*
X1837003Y1502072D02*
G01*
X1917279Y1486234D01*
X1980234Y1462296D01*
X2029117Y1431384D01*
X2078329Y1383433D01*
X2117250Y1325888D01*
X2146212Y1257238D01*
X2164677Y1175351D01*
X2171266Y1077598D01*
X2165249Y974445D01*
X2148565Y889465D01*
X2122806Y819699D01*
X2088879Y762642D01*
X2046946Y716363D01*
X2007602Y685866D01*
X1965741Y662320D01*
X1920978Y645349D01*
X1845528Y630517D01*
X1736209Y624711D01*
X1440064Y624711D01*
X1513071Y679421D01*
X1675331Y679421D01*
X1708975Y679421D01*
X1708975Y1404212D01*
X1775837Y1410196D01*
X1829089Y1406964D01*
X1864924Y1398778D01*
X1896446Y1383034D01*
X1929527Y1355730D01*
X1879937Y1375121D01*
X1828449Y1386742D01*
X1774494Y1390656D01*
X1729980Y1385344D01*
X1729980Y679421D01*
X1799810Y683070D01*
X1843492Y692000D01*
X1880797Y709820D01*
X1917925Y740543D01*
X1950234Y781163D01*
X1977013Y832775D01*
X1997772Y897599D01*
X2011435Y978350D01*
X2016416Y1078148D01*
X2010951Y1175552D01*
X1996096Y1252449D01*
X1973690Y1312566D01*
X1944849Y1359049D01*
X1909865Y1394320D01*
X1877053Y1414727D01*
X1833829Y1430716D01*
X1777647Y1441407D01*
X1705495Y1445367D01*
X1675331Y1445367D01*
X1675331Y679421D01*
X1513071Y679421D01*
X1537517Y697740D01*
X1537517Y1425522D01*
X1461924Y1507893D01*
X1735537Y1507893D01*
X1837003Y1502072D01*
G37*
G36*
X2937178Y1455239D02*
G01*
X2978942Y1419260D01*
X3015924Y1374472D01*
X3048220Y1319704D01*
X3079243Y1241415D01*
X3098492Y1153702D01*
X3105190Y1054884D01*
X3100187Y965454D01*
X3085875Y886325D01*
X3063031Y816143D01*
X3032056Y753739D01*
X2992960Y698167D01*
X2944850Y648848D01*
X2892134Y611245D01*
X2834172Y584360D01*
X2769953Y567879D01*
X2698159Y562185D01*
X2641350Y566984D01*
X2586343Y581365D01*
X2532409Y605705D01*
X2478951Y640892D01*
X2478951Y649257D01*
X2524129Y620216D01*
X2574295Y599216D01*
X2630331Y586232D01*
X2693335Y581724D01*
X2760199Y587066D01*
X2820623Y602598D01*
X2875755Y628055D01*
X2926480Y663814D01*
X2973360Y710868D01*
X3011892Y763990D01*
X3042158Y822726D01*
X3064294Y887842D01*
X3078059Y960310D01*
X3082841Y1041267D01*
X3076886Y1140267D01*
X3059901Y1227069D01*
X3032833Y1303401D01*
X2993699Y1373456D01*
X2946279Y1428822D01*
X2890195Y1471440D01*
X2890195Y1483163D01*
X2937178Y1455239D01*
G37*
G36*
X2731591Y1413318D02*
G01*
X2768819Y1399948D01*
X2800440Y1378148D01*
X2827363Y1347059D01*
X2807763Y1359516D01*
X2763082Y1382204D01*
X2723723Y1394612D01*
X2688572Y1398472D01*
X2646196Y1392735D01*
X2610442Y1376103D01*
X2579588Y1347880D01*
X2553051Y1305433D01*
X2531467Y1244546D01*
X2516551Y1159790D01*
X2510886Y1044748D01*
X2516825Y934773D01*
X2532809Y849721D01*
X2556620Y784841D01*
X2586865Y736112D01*
X2623115Y700426D01*
X2614384Y690595D01*
X2571901Y727501D01*
X2539008Y770468D01*
X2514977Y820288D01*
X2499840Y874314D01*
X2489600Y944836D01*
X2485790Y1035466D01*
X2492094Y1158847D01*
X2508730Y1250091D01*
X2532891Y1315981D01*
X2562762Y1362233D01*
X2597739Y1393231D01*
X2638568Y1411634D01*
X2687229Y1418012D01*
X2731591Y1413318D01*
G37*
G36*
X2739778Y1510399D02*
G01*
X2798128Y1495054D01*
X2850544Y1470041D01*
X2897991Y1435041D01*
X2941058Y1389069D01*
X2983058Y1323797D01*
X3014197Y1247162D01*
X3033944Y1157073D01*
X3040954Y1050976D01*
X3034068Y950936D01*
X3014648Y865987D01*
X2983956Y793668D01*
X2942402Y731995D01*
X2900251Y689132D01*
X2853495Y656263D01*
X2801504Y632623D01*
X2743305Y618046D01*
X2677643Y612987D01*
X2613520Y618293D01*
X2553825Y633928D01*
X2497612Y659930D01*
X2444146Y696946D01*
X2391478Y749457D01*
X2350189Y810782D01*
X2319780Y882220D01*
X2300598Y965627D01*
X2294811Y1048961D01*
X2445307Y1048961D01*
X2451981Y931518D01*
X2469709Y843673D01*
X2495755Y779234D01*
X2528500Y733075D01*
X2567652Y701426D01*
X2614313Y682246D01*
X2670804Y675513D01*
X2720191Y681722D01*
X2762228Y699682D01*
X2798703Y729796D01*
X2830416Y774249D01*
X2852367Y823381D01*
X2869649Y886088D01*
X2881149Y965217D01*
X2885371Y1063982D01*
X2880927Y1178200D01*
X2869263Y1262497D01*
X2852541Y1323042D01*
X2832370Y1365194D01*
X2801053Y1404316D01*
X2764977Y1431261D01*
X2723257Y1447528D01*
X2674223Y1453183D01*
X2624307Y1447769D01*
X2581908Y1432258D01*
X2545333Y1406737D01*
X2513621Y1369970D01*
X2486658Y1319546D01*
X2465186Y1252097D01*
X2450696Y1163490D01*
X2445307Y1048961D01*
X2294811Y1048961D01*
X2293815Y1063310D01*
X2298473Y1147729D01*
X2311731Y1221621D01*
X2332772Y1286393D01*
X2361140Y1343264D01*
X2396763Y1393221D01*
X2440708Y1437219D01*
X2489580Y1471040D01*
X2544056Y1495419D01*
X2605165Y1510477D01*
X2674223Y1515709D01*
X2739778Y1510399D01*
G37*
G36*
X3616695Y1492261D02*
G01*
X3975915Y1492261D01*
X3999118Y1492261D01*
X4061560Y1495347D01*
X4090893Y1502031D01*
X4108921Y1516308D01*
X4116050Y1540683D01*
X4112447Y1546972D01*
X4106341Y1542514D01*
X4085886Y1535248D01*
X4066913Y1539126D01*
X4056433Y1549496D01*
X4052547Y1568099D01*
X4056564Y1587056D01*
X4067455Y1597686D01*
X4087290Y1601682D01*
X4112040Y1595396D01*
X4135833Y1574755D01*
X4152221Y1546251D01*
X4157571Y1515404D01*
X4150818Y1472969D01*
X4131591Y1440188D01*
X4098770Y1414653D01*
X4057976Y1398567D01*
X3998496Y1387229D01*
X3914488Y1382841D01*
X3682091Y1382841D01*
X3682091Y1159786D01*
X3690518Y1166258D01*
X3716468Y1185004D01*
X3716468Y1351578D01*
X3917175Y1351578D01*
X3975793Y1351578D01*
X4064453Y1361531D01*
X4097687Y1372836D01*
X4126188Y1389948D01*
X4150671Y1413127D01*
X4169654Y1440839D01*
X4180691Y1469760D01*
X4184377Y1500627D01*
X4179834Y1534974D01*
X4164776Y1575548D01*
X4173080Y1575548D01*
X4178454Y1566450D01*
X4197076Y1524708D01*
X4202634Y1489453D01*
X4195651Y1446345D01*
X4174907Y1409083D01*
X4138398Y1375941D01*
X4093626Y1352340D01*
X4039518Y1337385D01*
X3973900Y1332038D01*
X3918579Y1332038D01*
X3738817Y1332038D01*
X3738817Y1196850D01*
X3780661Y1215317D01*
X3826196Y1226572D01*
X3876203Y1230433D01*
X3949482Y1224478D01*
X4012642Y1207499D01*
X4067474Y1180193D01*
X4115317Y1142384D01*
X4154527Y1095624D01*
X4182620Y1042382D01*
X4199984Y981391D01*
X4206053Y910902D01*
X4199672Y838739D01*
X4181514Y777226D01*
X4152257Y724351D01*
X4111470Y678689D01*
X4062111Y642644D01*
X4004001Y616136D01*
X3935459Y599390D01*
X3854344Y593448D01*
X3787661Y597649D01*
X3729748Y609592D01*
X3679308Y628579D01*
X3635258Y654325D01*
X3596426Y687792D01*
X3566499Y726545D01*
X3544757Y771271D01*
X3531149Y823097D01*
X3541224Y828593D01*
X3634674Y879884D01*
X3695219Y922138D01*
X3688258Y843491D01*
X3693909Y784391D01*
X3709450Y738248D01*
X3733810Y702197D01*
X3767227Y675003D01*
X3809269Y658120D01*
X3862526Y652066D01*
X3906098Y656754D01*
X3943600Y670256D01*
X3976360Y692522D01*
X4005163Y724545D01*
X4032780Y775476D01*
X4050735Y840765D01*
X4057309Y924153D01*
X4050844Y1001384D01*
X4033341Y1060319D01*
X4006568Y1105014D01*
X3979047Y1132123D01*
X3946505Y1151543D01*
X3907936Y1163633D01*
X3861854Y1167907D01*
X3804243Y1160597D01*
X3752908Y1139057D01*
X3706100Y1102345D01*
X3662979Y1047617D01*
X3616695Y1075888D01*
X3616695Y1492261D01*
G37*
G36*
X4128384Y1162167D02*
G01*
X4167861Y1131479D01*
X4200687Y1094499D01*
X4227302Y1050548D01*
X4246503Y1002614D01*
X4258105Y951844D01*
X4262046Y897591D01*
X4255105Y818916D01*
X4235204Y750614D01*
X4202900Y690738D01*
X4157632Y637900D01*
X4102688Y595290D01*
X4040006Y564532D01*
X3968115Y545428D01*
X3885057Y538737D01*
X3813005Y545261D01*
X3744410Y564710D01*
X3678183Y597539D01*
X3678183Y607858D01*
X3749171Y581983D01*
X3816992Y567042D01*
X3882370Y562185D01*
X3962991Y568466D01*
X4031644Y586259D01*
X4090417Y614639D01*
X4140901Y653593D01*
X4182239Y702210D01*
X4212003Y758380D01*
X4230508Y823581D01*
X4237011Y899850D01*
X4230073Y972703D01*
X4209834Y1038200D01*
X4176308Y1097901D01*
X4128384Y1152886D01*
X4128384Y1162167D01*
G37*
G36*
X3756219Y896858D02*
G01*
X3749075Y828959D01*
X3752560Y794831D01*
X3762750Y764178D01*
X3779727Y736208D01*
X3802402Y712476D01*
X3830795Y693151D01*
X3865884Y678200D01*
X3865884Y666293D01*
X3825653Y676985D01*
X3792114Y695819D01*
X3764035Y723141D01*
X3743138Y756599D01*
X3730412Y794662D01*
X3725994Y838546D01*
X3728197Y867616D01*
X3735458Y902659D01*
X3756219Y896858D01*
G37*
G36*
X4025497Y1021606D02*
G01*
X4017376Y1032719D01*
X3983861Y1069121D01*
X3948285Y1093777D01*
X3910030Y1108290D01*
X3868021Y1113197D01*
X3821102Y1107995D01*
X3783452Y1093413D01*
X3749170Y1067913D01*
X3705905Y1021056D01*
X3687587Y1031131D01*
X3725011Y1076600D01*
X3767040Y1107708D01*
X3814585Y1126322D01*
X3869364Y1132736D01*
X3922407Y1125730D01*
X3966461Y1105587D01*
X4003725Y1071808D01*
X4035022Y1021606D01*
X4025497Y1021606D01*
G37*
G36*
X5265518Y1724414D02*
G01*
X5275654Y1714278D01*
X5217973Y1653640D01*
X5169043Y1591714D01*
X5128253Y1528348D01*
X5071722Y1414958D01*
X4992576Y1220602D01*
X4793579Y698716D01*
X4877721Y624711D01*
X4552206Y624711D01*
X4645507Y702197D01*
X4396135Y1414714D01*
X4287264Y1507893D01*
X4636104Y1507893D01*
X4537369Y1409280D01*
X4760668Y771562D01*
X4785092Y830119D01*
X4583347Y1400670D01*
X4655399Y1471928D01*
X4670359Y1456052D01*
X4609054Y1395541D01*
X4796083Y859795D01*
X4939026Y1242218D01*
X4979627Y1360536D01*
X4998794Y1436882D01*
X5003811Y1483163D01*
X4997975Y1527011D01*
X4980587Y1566899D01*
X4950566Y1604125D01*
X4967175Y1607605D01*
X5068394Y1631541D01*
X5149920Y1659497D01*
X5214748Y1690639D01*
X5265518Y1724414D01*
G37*
G36*
X5303070Y1683259D02*
G01*
X5310703Y1663720D01*
X5267102Y1622597D01*
X5218879Y1561161D01*
X5165423Y1474057D01*
X5106274Y1355137D01*
X5041058Y1197521D01*
X4848839Y694748D01*
X4957405Y570000D01*
X4599834Y570000D01*
X4581027Y589540D01*
X4908618Y589540D01*
X4824537Y689130D01*
X5021031Y1203689D01*
X5057911Y1301019D01*
X5112222Y1423232D01*
X5174232Y1532134D01*
X5222100Y1600322D01*
X5264835Y1649473D01*
X5303070Y1683259D01*
G37*
G36*
X6334630Y1507893D02*
G01*
X6324921Y1489270D01*
X6278454Y1407082D01*
X6256413Y1360266D01*
X6234124Y1297844D01*
X6231864Y1292043D01*
X6222339Y1298821D01*
X6220141Y1308713D01*
X6203492Y1360503D01*
X6184722Y1395836D01*
X6164453Y1418744D01*
X6138605Y1434663D01*
X6102844Y1445280D01*
X6054056Y1449275D01*
X5992690Y1445367D01*
X5986339Y1445367D01*
X5986339Y702441D01*
X6069931Y624711D01*
X5747409Y624711D01*
X5846449Y707998D01*
X5846449Y1388886D01*
X5799860Y1390656D01*
X5754226Y1386871D01*
X5722573Y1377041D01*
X5701186Y1362630D01*
X5685816Y1341793D01*
X5673826Y1309551D01*
X5666503Y1261696D01*
X5644766Y1261696D01*
X5654136Y1316632D01*
X5668640Y1353766D01*
X5686898Y1377834D01*
X5711973Y1394558D01*
X5748336Y1405871D01*
X5799921Y1410196D01*
X5840893Y1410868D01*
X5846449Y1410868D01*
X5846449Y1441398D01*
X5782152Y1445367D01*
X5724901Y1440546D01*
X5684433Y1427919D01*
X5656428Y1409219D01*
X5636226Y1382402D01*
X5621528Y1342454D01*
X5613930Y1284716D01*
X5602390Y1284716D01*
X5566355Y1382518D01*
X5511287Y1498123D01*
X5505486Y1507893D01*
X6334630Y1507893D01*
G37*
G36*
X6377067Y1453427D02*
G01*
X6348258Y1410504D01*
X6315130Y1346087D01*
X6277233Y1254064D01*
X6273447Y1244782D01*
X6255373Y1260292D01*
X6257876Y1267680D01*
X6295441Y1361535D01*
X6327941Y1424450D01*
X6355879Y1464051D01*
X6360642Y1469730D01*
X6377067Y1453427D01*
G37*
G36*
X6197060Y1350723D02*
G01*
X6156726Y1373004D01*
X6114340Y1386209D01*
X6069077Y1390656D01*
X6038241Y1387115D01*
X6040989Y699144D01*
X6151875Y570000D01*
X5797784Y570000D01*
X5778061Y589540D01*
X6105774Y589540D01*
X6016564Y692244D01*
X6016564Y1410318D01*
X6055399Y1410196D01*
X6117226Y1406965D01*
X6150226Y1399571D01*
X6174972Y1383141D01*
X6197060Y1350723D01*
G37*
G36*
X7025803Y1455239D02*
G01*
X7067567Y1419260D01*
X7104550Y1374472D01*
X7136845Y1319704D01*
X7167868Y1241415D01*
X7187118Y1153702D01*
X7193815Y1054884D01*
X7188812Y965454D01*
X7174500Y886325D01*
X7151656Y816143D01*
X7120681Y753739D01*
X7081585Y698167D01*
X7033475Y648848D01*
X6980759Y611245D01*
X6922797Y584360D01*
X6858578Y567879D01*
X6786784Y562185D01*
X6729975Y566984D01*
X6674969Y581365D01*
X6621034Y605705D01*
X6567576Y640892D01*
X6567576Y649257D01*
X6612754Y620216D01*
X6662920Y599216D01*
X6718956Y586232D01*
X6781960Y581724D01*
X6848825Y587066D01*
X6909248Y602598D01*
X6964380Y628055D01*
X7015105Y663814D01*
X7061985Y710868D01*
X7100517Y763990D01*
X7130783Y822726D01*
X7152920Y887842D01*
X7166684Y960310D01*
X7171467Y1041267D01*
X7165512Y1140267D01*
X7148527Y1227069D01*
X7121458Y1303401D01*
X7082325Y1373456D01*
X7034904Y1428822D01*
X6978820Y1471440D01*
X6978820Y1483163D01*
X7025803Y1455239D01*
G37*
G36*
X6820216Y1413318D02*
G01*
X6857444Y1399948D01*
X6889066Y1378148D01*
X6915989Y1347059D01*
X6896388Y1359516D01*
X6851708Y1382204D01*
X6812348Y1394612D01*
X6777198Y1398472D01*
X6734821Y1392735D01*
X6699067Y1376103D01*
X6668213Y1347880D01*
X6641676Y1305433D01*
X6620092Y1244546D01*
X6605176Y1159790D01*
X6599511Y1044748D01*
X6605450Y934773D01*
X6621434Y849721D01*
X6645246Y784841D01*
X6675490Y736112D01*
X6711741Y700426D01*
X6703009Y690595D01*
X6660527Y727501D01*
X6627633Y770468D01*
X6603602Y820288D01*
X6588466Y874314D01*
X6578226Y944836D01*
X6574415Y1035466D01*
X6580720Y1158847D01*
X6597355Y1250091D01*
X6621517Y1315981D01*
X6651387Y1362233D01*
X6686364Y1393231D01*
X6727193Y1411634D01*
X6775854Y1418012D01*
X6820216Y1413318D01*
G37*
G36*
X6828404Y1510399D02*
G01*
X6886753Y1495054D01*
X6939170Y1470041D01*
X6986616Y1435041D01*
X7029684Y1389069D01*
X7071684Y1323797D01*
X7102822Y1247162D01*
X7122570Y1157073D01*
X7129579Y1050976D01*
X7122693Y950936D01*
X7103273Y865987D01*
X7072582Y793668D01*
X7031027Y731995D01*
X6988877Y689132D01*
X6942121Y656263D01*
X6890130Y632623D01*
X6831930Y618046D01*
X6766268Y612987D01*
X6702145Y618293D01*
X6642450Y633928D01*
X6586237Y659930D01*
X6532772Y696946D01*
X6480104Y749457D01*
X6438814Y810782D01*
X6408406Y882220D01*
X6389224Y965627D01*
X6383437Y1048961D01*
X6533932Y1048961D01*
X6540606Y931518D01*
X6558335Y843673D01*
X6584380Y779234D01*
X6617125Y733075D01*
X6656277Y701426D01*
X6702938Y682246D01*
X6759429Y675513D01*
X6808816Y681722D01*
X6850854Y699682D01*
X6887328Y729796D01*
X6919042Y774249D01*
X6940993Y823381D01*
X6958274Y886088D01*
X6969775Y965217D01*
X6973996Y1063982D01*
X6969552Y1178200D01*
X6957888Y1262497D01*
X6941166Y1323042D01*
X6920996Y1365194D01*
X6889678Y1404316D01*
X6853602Y1431261D01*
X6811883Y1447528D01*
X6762848Y1453183D01*
X6712932Y1447769D01*
X6670533Y1432258D01*
X6633959Y1406737D01*
X6602246Y1369970D01*
X6575284Y1319546D01*
X6553811Y1252097D01*
X6539321Y1163490D01*
X6533932Y1048961D01*
X6383437Y1048961D01*
X6382440Y1063310D01*
X6387098Y1147729D01*
X6400357Y1221621D01*
X6421397Y1286393D01*
X6449766Y1343264D01*
X6485389Y1393221D01*
X6529333Y1437219D01*
X6578205Y1471040D01*
X6632681Y1495419D01*
X6693790Y1510477D01*
X6762848Y1515709D01*
X6828404Y1510399D01*
G37*
G36*
X7799232Y933861D02*
G01*
X7791035Y888013D01*
X7788485Y848071D01*
X7794100Y787428D01*
X7809220Y742218D01*
X7832392Y708787D01*
X7863823Y684764D01*
X7905337Y669417D01*
X7960066Y663790D01*
X8014939Y670179D01*
X8058676Y688098D01*
X8093850Y717157D01*
X8119528Y755441D01*
X8135897Y804294D01*
X8141844Y866694D01*
X8135641Y928514D01*
X8117842Y981670D01*
X8088721Y1027956D01*
X8049702Y1065103D01*
X8006703Y1086461D01*
X7957990Y1093657D01*
X7885327Y1084498D01*
X7874337Y1081811D01*
X7902608Y1161190D01*
X7910362Y1161190D01*
X7952494Y1156183D01*
X7998093Y1161206D01*
X8036393Y1175545D01*
X8068998Y1199048D01*
X8094162Y1230127D01*
X8109289Y1266395D01*
X8114549Y1309446D01*
X8108986Y1351385D01*
X8092589Y1388508D01*
X8064541Y1422164D01*
X8028952Y1448057D01*
X7989103Y1463510D01*
X7943640Y1468814D01*
X7900424Y1464449D01*
X7864499Y1452091D01*
X7834342Y1432117D01*
X7810701Y1405307D01*
X7796719Y1374474D01*
X7791905Y1338266D01*
X7796597Y1304450D01*
X7809490Y1279770D01*
X7829760Y1263299D01*
X7855530Y1257788D01*
X7874231Y1261964D01*
X7893449Y1275679D01*
X7906454Y1268779D01*
X7889994Y1239802D01*
X7868223Y1219825D01*
X7840308Y1207504D01*
X7804300Y1203078D01*
X7769353Y1207412D01*
X7739086Y1220024D01*
X7712342Y1241241D01*
X7691775Y1268595D01*
X7679500Y1299447D01*
X7675279Y1334908D01*
X7680129Y1369316D01*
X7695201Y1403842D01*
X7722295Y1439505D01*
X7764203Y1474333D01*
X7817153Y1500451D01*
X7883643Y1517371D01*
X7966905Y1523525D01*
X8046537Y1516491D01*
X8112444Y1496729D01*
X8167306Y1465273D01*
X8202319Y1433182D01*
X8226317Y1398110D01*
X8240629Y1359375D01*
X8245525Y1315796D01*
X8240833Y1273096D01*
X8227094Y1234890D01*
X8204064Y1200086D01*
X8173790Y1171135D01*
X8136962Y1148956D01*
X8092384Y1133469D01*
X8079524Y1128424D01*
X8077424Y1125348D01*
X8080211Y1120600D01*
X8090430Y1115273D01*
X8155137Y1089077D01*
X8204696Y1057106D01*
X8241747Y1019686D01*
X8268030Y976367D01*
X8284232Y925966D01*
X8289916Y866694D01*
X8284128Y807690D01*
X8267612Y757538D01*
X8240774Y714438D01*
X8202843Y677223D01*
X8158071Y648854D01*
X8104339Y627589D01*
X8039926Y613959D01*
X7962752Y609079D01*
X7891877Y613395D01*
X7833248Y625389D01*
X7784853Y643984D01*
X7745010Y668614D01*
X7710938Y700867D01*
X7682464Y741621D01*
X7659587Y792325D01*
X7642855Y854910D01*
X7650671Y857535D01*
X7731396Y891175D01*
X7799232Y933861D01*
G37*
G36*
X7859071Y913894D02*
G01*
X7858155Y904308D01*
X7850645Y826455D01*
X7856179Y779722D01*
X7871848Y741675D01*
X7897508Y710316D01*
X7934665Y684673D01*
X7934665Y674048D01*
X7904181Y686489D01*
X7878412Y705020D01*
X7856690Y730163D01*
X7840661Y759534D01*
X7830957Y791828D01*
X7827625Y827799D01*
X7829720Y860290D01*
X7837212Y907483D01*
X7838128Y913894D01*
X7859071Y913894D01*
G37*
G36*
X8099895Y981855D02*
G01*
X8060837Y1013520D01*
X8015981Y1032418D01*
X7963485Y1038947D01*
X7930722Y1036011D01*
X7905539Y1028017D01*
X7898089Y1024231D01*
X7891372Y1046152D01*
X7933655Y1055761D01*
X7964157Y1058486D01*
X8013750Y1053190D01*
X8052885Y1038475D01*
X8083921Y1014989D01*
X8108199Y981855D01*
X8099895Y981855D01*
G37*
G36*
X8252363Y1051831D02*
G01*
X8299891Y997208D01*
X8326247Y954072D01*
X8341191Y907920D01*
X8346580Y850147D01*
X8340150Y785799D01*
X8321593Y729672D01*
X8291077Y680051D01*
X8247540Y635824D01*
X8196252Y601333D01*
X8136746Y575976D01*
X8067516Y560008D01*
X7986688Y554369D01*
X7901837Y561026D01*
X7831918Y579619D01*
X7774170Y608863D01*
X7726509Y648586D01*
X7726509Y657500D01*
X7736461Y649624D01*
X7792197Y616626D01*
X7851522Y593098D01*
X7915146Y578793D01*
X7983941Y573908D01*
X8058041Y579189D01*
X8122470Y594248D01*
X8178772Y618354D01*
X8228183Y651394D01*
X8270473Y693548D01*
X8299818Y739947D01*
X8317487Y791528D01*
X8323560Y849781D01*
X8319615Y898683D01*
X8308661Y938380D01*
X8288883Y977581D01*
X8250837Y1034062D01*
X8244487Y1042855D01*
X8252363Y1051831D01*
G37*
G36*
X8192402Y1473821D02*
G01*
X8221459Y1461915D01*
X8247870Y1440949D01*
X8272147Y1409097D01*
X8290211Y1372836D01*
X8300768Y1336346D01*
X8304265Y1299065D01*
X8299204Y1253259D01*
X8284190Y1210941D01*
X8258714Y1171082D01*
X8225421Y1137615D01*
X8187444Y1114009D01*
X8143859Y1099519D01*
X8127128Y1116372D01*
X8173100Y1133435D01*
X8210499Y1156409D01*
X8240640Y1185248D01*
X8263718Y1219749D01*
X8277321Y1256692D01*
X8281917Y1297050D01*
X8277312Y1338488D01*
X8263258Y1379518D01*
X8238760Y1420977D01*
X8202049Y1463502D01*
X8192402Y1473821D01*
G37*
G36*
X8097025Y1325260D02*
G01*
X8090308Y1335213D01*
X8059775Y1371126D01*
X8027320Y1395237D01*
X7992383Y1409344D01*
X7953899Y1414104D01*
X7913376Y1407816D01*
X7882152Y1389985D01*
X7861133Y1362563D01*
X7854064Y1328008D01*
X7860015Y1303920D01*
X7878672Y1283678D01*
X7882641Y1279709D01*
X7873360Y1266093D01*
X7849040Y1281626D01*
X7835190Y1302031D01*
X7830373Y1328863D01*
X7834287Y1357103D01*
X7845784Y1381682D01*
X7865483Y1403601D01*
X7890360Y1420057D01*
X7919250Y1430124D01*
X7953227Y1433643D01*
X8006020Y1426428D01*
X8049275Y1405738D01*
X8073153Y1384837D01*
X8092305Y1358334D01*
X8106856Y1325260D01*
X8097025Y1325260D01*
G37*
G36*
X7957257Y1235807D02*
G01*
X7929882Y1199473D01*
X7900047Y1175204D01*
X7867226Y1161002D01*
X7830251Y1156183D01*
X7794618Y1161952D01*
X7758398Y1180160D01*
X7720280Y1213703D01*
X7715579Y1217855D01*
X7715579Y1226464D01*
X7725043Y1219748D01*
X7748124Y1201307D01*
X7782118Y1182502D01*
X7828236Y1175723D01*
X7859539Y1180488D01*
X7890701Y1195323D01*
X7917652Y1218087D01*
X7938145Y1247408D01*
X7957257Y1235807D01*
G37*
G36*
X9354143Y1724414D02*
G01*
X9364279Y1714278D01*
X9306599Y1653640D01*
X9257668Y1591714D01*
X9216878Y1528348D01*
X9160347Y1414958D01*
X9081202Y1220602D01*
X8882205Y698716D01*
X8966346Y624711D01*
X8640832Y624711D01*
X8734132Y702197D01*
X8484760Y1414714D01*
X8375889Y1507893D01*
X8724729Y1507893D01*
X8625994Y1409280D01*
X8849293Y771562D01*
X8873717Y830119D01*
X8671973Y1400670D01*
X8744024Y1471928D01*
X8758984Y1456052D01*
X8697679Y1395541D01*
X8884708Y859795D01*
X9027651Y1242218D01*
X9068253Y1360536D01*
X9087419Y1436882D01*
X9092437Y1483163D01*
X9086600Y1527011D01*
X9069212Y1566899D01*
X9039192Y1604125D01*
X9055800Y1607605D01*
X9157019Y1631541D01*
X9238545Y1659497D01*
X9303374Y1690639D01*
X9354143Y1724414D01*
G37*
G36*
X9391695Y1683259D02*
G01*
X9399328Y1663720D01*
X9355728Y1622597D01*
X9307504Y1561161D01*
X9254048Y1474057D01*
X9194900Y1355137D01*
X9129684Y1197521D01*
X8937465Y694748D01*
X9046031Y570000D01*
X8688459Y570000D01*
X8669652Y589540D01*
X8997243Y589540D01*
X8913162Y689130D01*
X9109656Y1203689D01*
X9146536Y1301019D01*
X9200847Y1423232D01*
X9262857Y1532134D01*
X9310726Y1600322D01*
X9353460Y1649473D01*
X9391695Y1683259D01*
G37*
G36*
X9505024Y933861D02*
G01*
X9496827Y888013D01*
X9494277Y848071D01*
X9499892Y787428D01*
X9515012Y742218D01*
X9538184Y708787D01*
X9569615Y684764D01*
X9611129Y669417D01*
X9665858Y663790D01*
X9720731Y670179D01*
X9764468Y688098D01*
X9799642Y717157D01*
X9825320Y755441D01*
X9841689Y804294D01*
X9847636Y866694D01*
X9841433Y928514D01*
X9823634Y981670D01*
X9794513Y1027956D01*
X9755494Y1065103D01*
X9712495Y1086461D01*
X9663782Y1093657D01*
X9591120Y1084498D01*
X9580129Y1081811D01*
X9608400Y1161190D01*
X9616154Y1161190D01*
X9658286Y1156183D01*
X9703885Y1161206D01*
X9742185Y1175545D01*
X9774790Y1199048D01*
X9799954Y1230127D01*
X9815081Y1266395D01*
X9820341Y1309446D01*
X9814778Y1351385D01*
X9798381Y1388508D01*
X9770333Y1422164D01*
X9734744Y1448057D01*
X9694895Y1463510D01*
X9649433Y1468814D01*
X9606216Y1464449D01*
X9570291Y1452091D01*
X9540134Y1432117D01*
X9516493Y1405307D01*
X9502511Y1374474D01*
X9497697Y1338266D01*
X9502389Y1304450D01*
X9515282Y1279770D01*
X9535552Y1263299D01*
X9561322Y1257788D01*
X9580023Y1261964D01*
X9599241Y1275679D01*
X9612247Y1268779D01*
X9595786Y1239802D01*
X9574016Y1219825D01*
X9546100Y1207504D01*
X9510092Y1203078D01*
X9475145Y1207412D01*
X9444878Y1220024D01*
X9418135Y1241241D01*
X9397567Y1268595D01*
X9385292Y1299447D01*
X9381071Y1334908D01*
X9385921Y1369316D01*
X9400994Y1403842D01*
X9428087Y1439505D01*
X9469995Y1474333D01*
X9522945Y1500451D01*
X9589435Y1517371D01*
X9672697Y1523525D01*
X9752329Y1516491D01*
X9818236Y1496729D01*
X9873098Y1465273D01*
X9908111Y1433182D01*
X9932109Y1398110D01*
X9946422Y1359375D01*
X9951317Y1315796D01*
X9946625Y1273096D01*
X9932886Y1234890D01*
X9909856Y1200086D01*
X9879582Y1171135D01*
X9842754Y1148956D01*
X9798176Y1133469D01*
X9785316Y1128424D01*
X9783217Y1125348D01*
X9786003Y1120600D01*
X9796222Y1115273D01*
X9860929Y1089077D01*
X9910488Y1057106D01*
X9947539Y1019686D01*
X9973822Y976367D01*
X9990024Y925966D01*
X9995708Y866694D01*
X9989920Y807690D01*
X9973404Y757538D01*
X9946566Y714438D01*
X9908635Y677223D01*
X9863863Y648854D01*
X9810131Y627589D01*
X9745718Y613959D01*
X9668545Y609079D01*
X9597669Y613395D01*
X9539040Y625389D01*
X9490645Y643984D01*
X9450802Y668614D01*
X9416730Y700867D01*
X9388256Y741621D01*
X9365379Y792325D01*
X9348647Y854910D01*
X9356463Y857535D01*
X9437188Y891175D01*
X9505024Y933861D01*
G37*
G36*
X9564863Y913894D02*
G01*
X9563948Y904308D01*
X9556437Y826455D01*
X9561971Y779722D01*
X9577640Y741675D01*
X9603300Y710316D01*
X9640457Y684673D01*
X9640457Y674048D01*
X9609973Y686489D01*
X9584204Y705020D01*
X9562482Y730163D01*
X9546453Y759534D01*
X9536749Y791828D01*
X9533417Y827799D01*
X9535512Y860290D01*
X9543004Y907483D01*
X9543920Y913894D01*
X9564863Y913894D01*
G37*
G36*
X9805687Y981855D02*
G01*
X9766629Y1013520D01*
X9721774Y1032418D01*
X9669277Y1038947D01*
X9636515Y1036011D01*
X9611331Y1028017D01*
X9603881Y1024231D01*
X9597165Y1046152D01*
X9639447Y1055761D01*
X9669949Y1058486D01*
X9719542Y1053190D01*
X9758677Y1038475D01*
X9789713Y1014989D01*
X9813991Y981855D01*
X9805687Y981855D01*
G37*
G36*
X9958155Y1051831D02*
G01*
X10005683Y997208D01*
X10032039Y954072D01*
X10046983Y907920D01*
X10052372Y850147D01*
X10045942Y785799D01*
X10027385Y729672D01*
X9996869Y680051D01*
X9953332Y635824D01*
X9902044Y601333D01*
X9842538Y575976D01*
X9773308Y560008D01*
X9692480Y554369D01*
X9607630Y561026D01*
X9537710Y579619D01*
X9479962Y608863D01*
X9432301Y648586D01*
X9432301Y657500D01*
X9442254Y649624D01*
X9497989Y616626D01*
X9557314Y593098D01*
X9620939Y578793D01*
X9689733Y573908D01*
X9763834Y579189D01*
X9828262Y594248D01*
X9884564Y618354D01*
X9933975Y651394D01*
X9976265Y693548D01*
X10005610Y739947D01*
X10023279Y791528D01*
X10029352Y849781D01*
X10025407Y898683D01*
X10014453Y938380D01*
X9994675Y977581D01*
X9956629Y1034062D01*
X9950279Y1042855D01*
X9958155Y1051831D01*
G37*
G36*
X9898194Y1473821D02*
G01*
X9927251Y1461915D01*
X9953662Y1440949D01*
X9977939Y1409097D01*
X9996003Y1372836D01*
X10006560Y1336346D01*
X10010057Y1299065D01*
X10004996Y1253259D01*
X9989982Y1210941D01*
X9964506Y1171082D01*
X9931213Y1137615D01*
X9893236Y1114009D01*
X9849651Y1099519D01*
X9832920Y1116372D01*
X9878892Y1133435D01*
X9916292Y1156409D01*
X9946432Y1185248D01*
X9969510Y1219749D01*
X9983113Y1256692D01*
X9987709Y1297050D01*
X9983104Y1338488D01*
X9969050Y1379518D01*
X9944552Y1420977D01*
X9907841Y1463502D01*
X9898194Y1473821D01*
G37*
G36*
X9802817Y1325260D02*
G01*
X9796100Y1335213D01*
X9765567Y1371126D01*
X9733112Y1395237D01*
X9698175Y1409344D01*
X9659691Y1414104D01*
X9619168Y1407816D01*
X9587944Y1389985D01*
X9566925Y1362563D01*
X9559856Y1328008D01*
X9565807Y1303920D01*
X9584464Y1283678D01*
X9588433Y1279709D01*
X9579152Y1266093D01*
X9554832Y1281626D01*
X9540982Y1302031D01*
X9536165Y1328863D01*
X9540079Y1357103D01*
X9551576Y1381682D01*
X9571275Y1403601D01*
X9596152Y1420057D01*
X9625043Y1430124D01*
X9659019Y1433643D01*
X9711812Y1426428D01*
X9755068Y1405738D01*
X9778945Y1384837D01*
X9798097Y1358334D01*
X9812648Y1325260D01*
X9802817Y1325260D01*
G37*
G36*
X9663049Y1235807D02*
G01*
X9635674Y1199473D01*
X9605839Y1175204D01*
X9573018Y1161002D01*
X9536043Y1156183D01*
X9500410Y1161952D01*
X9464190Y1180160D01*
X9426072Y1213703D01*
X9421371Y1217855D01*
X9421371Y1226464D01*
X9430835Y1219748D01*
X9453916Y1201307D01*
X9487910Y1182502D01*
X9534028Y1175723D01*
X9565331Y1180488D01*
X9596493Y1195323D01*
X9623444Y1218087D01*
X9643937Y1247408D01*
X9663049Y1235807D01*
G37*
D11*
X19638095Y15095181D02*
X20209523Y15095181D01*
X19923809Y14095181D02*
X19923809Y15095181D01*
X20542857Y14095181D02*
X20542857Y15095181D01*
X20542857Y15095181D02*
X20923809Y15095181D01*
X20923809Y15095181D02*
X21019047Y15047562D01*
X21019047Y15047562D02*
X21066666Y14999943D01*
X21066666Y14999943D02*
X21114285Y14904705D01*
X21114285Y14904705D02*
X21114285Y14761848D01*
X21114285Y14761848D02*
X21066666Y14666610D01*
X21066666Y14666610D02*
X21019047Y14618991D01*
X21019047Y14618991D02*
X20923809Y14571372D01*
X20923809Y14571372D02*
X20542857Y14571372D01*
X21495238Y14999943D02*
X21542857Y15047562D01*
X21542857Y15047562D02*
X21638095Y15095181D01*
X21638095Y15095181D02*
X21876190Y15095181D01*
X21876190Y15095181D02*
X21971428Y15047562D01*
X21971428Y15047562D02*
X22019047Y14999943D01*
X22019047Y14999943D02*
X22066666Y14904705D01*
X22066666Y14904705D02*
X22066666Y14809467D01*
X22066666Y14809467D02*
X22019047Y14666610D01*
X22019047Y14666610D02*
X21447619Y14095181D01*
X21447619Y14095181D02*
X22066666Y14095181D01*
X22888095Y1895181D02*
X23459523Y1895181D01*
X23173809Y895181D02*
X23173809Y1895181D01*
X23792857Y895181D02*
X23792857Y1895181D01*
X23792857Y1895181D02*
X24173809Y1895181D01*
X24173809Y1895181D02*
X24269047Y1847562D01*
X24269047Y1847562D02*
X24316666Y1799943D01*
X24316666Y1799943D02*
X24364285Y1704705D01*
X24364285Y1704705D02*
X24364285Y1561848D01*
X24364285Y1561848D02*
X24316666Y1466610D01*
X24316666Y1466610D02*
X24269047Y1418991D01*
X24269047Y1418991D02*
X24173809Y1371372D01*
X24173809Y1371372D02*
X23792857Y1371372D01*
X25316666Y895181D02*
X24745238Y895181D01*
X25030952Y895181D02*
X25030952Y1895181D01*
X25030952Y1895181D02*
X24935714Y1752324D01*
X24935714Y1752324D02*
X24840476Y1657086D01*
X24840476Y1657086D02*
X24745238Y1609467D01*
X10666666Y13518991D02*
X10333333Y13518991D01*
X10333333Y12995181D02*
X10333333Y13995181D01*
X10333333Y13995181D02*
X10809523Y13995181D01*
X11142857Y13899943D02*
X11190476Y13947562D01*
X11190476Y13947562D02*
X11285714Y13995181D01*
X11285714Y13995181D02*
X11523809Y13995181D01*
X11523809Y13995181D02*
X11619047Y13947562D01*
X11619047Y13947562D02*
X11666666Y13899943D01*
X11666666Y13899943D02*
X11714285Y13804705D01*
X11714285Y13804705D02*
X11714285Y13709467D01*
X11714285Y13709467D02*
X11666666Y13566610D01*
X11666666Y13566610D02*
X11095238Y12995181D01*
X11095238Y12995181D02*
X11714285Y12995181D01*
X7323772Y14402288D02*
X7323772Y13688003D01*
X7323772Y13688003D02*
X7276153Y13545146D01*
X7276153Y13545146D02*
X7180915Y13449907D01*
X7180915Y13449907D02*
X7038058Y13402288D01*
X7038058Y13402288D02*
X6942820Y13402288D01*
X7752344Y14307050D02*
X7799963Y14354669D01*
X7799963Y14354669D02*
X7895201Y14402288D01*
X7895201Y14402288D02*
X8133296Y14402288D01*
X8133296Y14402288D02*
X8228534Y14354669D01*
X8228534Y14354669D02*
X8276153Y14307050D01*
X8276153Y14307050D02*
X8323772Y14211812D01*
X8323772Y14211812D02*
X8323772Y14116574D01*
X8323772Y14116574D02*
X8276153Y13973717D01*
X8276153Y13973717D02*
X7704725Y13402288D01*
X7704725Y13402288D02*
X8323772Y13402288D01*
X10290439Y6652288D02*
X9957106Y7128479D01*
X9719011Y6652288D02*
X9719011Y7652288D01*
X9719011Y7652288D02*
X10099963Y7652288D01*
X10099963Y7652288D02*
X10195201Y7604669D01*
X10195201Y7604669D02*
X10242820Y7557050D01*
X10242820Y7557050D02*
X10290439Y7461812D01*
X10290439Y7461812D02*
X10290439Y7318955D01*
X10290439Y7318955D02*
X10242820Y7223717D01*
X10242820Y7223717D02*
X10195201Y7176098D01*
X10195201Y7176098D02*
X10099963Y7128479D01*
X10099963Y7128479D02*
X9719011Y7128479D01*
X11195201Y7652288D02*
X10719011Y7652288D01*
X10719011Y7652288D02*
X10671392Y7176098D01*
X10671392Y7176098D02*
X10719011Y7223717D01*
X10719011Y7223717D02*
X10814249Y7271336D01*
X10814249Y7271336D02*
X11052344Y7271336D01*
X11052344Y7271336D02*
X11147582Y7223717D01*
X11147582Y7223717D02*
X11195201Y7176098D01*
X11195201Y7176098D02*
X11242820Y7080860D01*
X11242820Y7080860D02*
X11242820Y6842765D01*
X11242820Y6842765D02*
X11195201Y6747527D01*
X11195201Y6747527D02*
X11147582Y6699907D01*
X11147582Y6699907D02*
X11052344Y6652288D01*
X11052344Y6652288D02*
X10814249Y6652288D01*
X10814249Y6652288D02*
X10719011Y6699907D01*
X10719011Y6699907D02*
X10671392Y6747527D01*
X10490439Y3602288D02*
X10157106Y4078479D01*
X9919011Y3602288D02*
X9919011Y4602288D01*
X9919011Y4602288D02*
X10299963Y4602288D01*
X10299963Y4602288D02*
X10395201Y4554669D01*
X10395201Y4554669D02*
X10442820Y4507050D01*
X10442820Y4507050D02*
X10490439Y4411812D01*
X10490439Y4411812D02*
X10490439Y4268955D01*
X10490439Y4268955D02*
X10442820Y4173717D01*
X10442820Y4173717D02*
X10395201Y4126098D01*
X10395201Y4126098D02*
X10299963Y4078479D01*
X10299963Y4078479D02*
X9919011Y4078479D01*
X11347582Y4268955D02*
X11347582Y3602288D01*
X11109487Y4649907D02*
X10871392Y3935622D01*
X10871392Y3935622D02*
X11490439Y3935622D01*
X20138095Y9745181D02*
X20138095Y8935658D01*
X20138095Y8935658D02*
X20185714Y8840420D01*
X20185714Y8840420D02*
X20233333Y8792800D01*
X20233333Y8792800D02*
X20328571Y8745181D01*
X20328571Y8745181D02*
X20519047Y8745181D01*
X20519047Y8745181D02*
X20614285Y8792800D01*
X20614285Y8792800D02*
X20661904Y8840420D01*
X20661904Y8840420D02*
X20709523Y8935658D01*
X20709523Y8935658D02*
X20709523Y9745181D01*
X21709523Y8745181D02*
X21138095Y8745181D01*
X21423809Y8745181D02*
X21423809Y9745181D01*
X21423809Y9745181D02*
X21328571Y9602324D01*
X21328571Y9602324D02*
X21233333Y9507086D01*
X21233333Y9507086D02*
X21138095Y9459467D01*
X14240439Y2147527D02*
X14192820Y2099907D01*
X14192820Y2099907D02*
X14049963Y2052288D01*
X14049963Y2052288D02*
X13954725Y2052288D01*
X13954725Y2052288D02*
X13811868Y2099907D01*
X13811868Y2099907D02*
X13716630Y2195146D01*
X13716630Y2195146D02*
X13669011Y2290384D01*
X13669011Y2290384D02*
X13621392Y2480860D01*
X13621392Y2480860D02*
X13621392Y2623717D01*
X13621392Y2623717D02*
X13669011Y2814193D01*
X13669011Y2814193D02*
X13716630Y2909431D01*
X13716630Y2909431D02*
X13811868Y3004669D01*
X13811868Y3004669D02*
X13954725Y3052288D01*
X13954725Y3052288D02*
X14049963Y3052288D01*
X14049963Y3052288D02*
X14192820Y3004669D01*
X14192820Y3004669D02*
X14240439Y2957050D01*
X14621392Y2957050D02*
X14669011Y3004669D01*
X14669011Y3004669D02*
X14764249Y3052288D01*
X14764249Y3052288D02*
X15002344Y3052288D01*
X15002344Y3052288D02*
X15097582Y3004669D01*
X15097582Y3004669D02*
X15145201Y2957050D01*
X15145201Y2957050D02*
X15192820Y2861812D01*
X15192820Y2861812D02*
X15192820Y2766574D01*
X15192820Y2766574D02*
X15145201Y2623717D01*
X15145201Y2623717D02*
X14573773Y2052288D01*
X14573773Y2052288D02*
X15192820Y2052288D01*
X3935677Y14176098D02*
X3602344Y14176098D01*
X3602344Y13652288D02*
X3602344Y14652288D01*
X3602344Y14652288D02*
X4078534Y14652288D01*
X4459487Y13652288D02*
X4459487Y14652288D01*
X4935677Y13652288D02*
X4935677Y14652288D01*
X4935677Y14652288D02*
X5173772Y14652288D01*
X5173772Y14652288D02*
X5316629Y14604669D01*
X5316629Y14604669D02*
X5411867Y14509431D01*
X5411867Y14509431D02*
X5459486Y14414193D01*
X5459486Y14414193D02*
X5507105Y14223717D01*
X5507105Y14223717D02*
X5507105Y14080860D01*
X5507105Y14080860D02*
X5459486Y13890384D01*
X5459486Y13890384D02*
X5411867Y13795146D01*
X5411867Y13795146D02*
X5316629Y13699907D01*
X5316629Y13699907D02*
X5173772Y13652288D01*
X5173772Y13652288D02*
X4935677Y13652288D01*
X6459486Y13652288D02*
X5888058Y13652288D01*
X6173772Y13652288D02*
X6173772Y14652288D01*
X6173772Y14652288D02*
X6078534Y14509431D01*
X6078534Y14509431D02*
X5983296Y14414193D01*
X5983296Y14414193D02*
X5888058Y14366574D01*
X16978571Y2668991D02*
X16645238Y2668991D01*
X16645238Y2145181D02*
X16645238Y3145181D01*
X16645238Y3145181D02*
X17121428Y3145181D01*
X17502381Y2145181D02*
X17502381Y3145181D01*
X17978571Y2145181D02*
X17978571Y3145181D01*
X17978571Y3145181D02*
X18216666Y3145181D01*
X18216666Y3145181D02*
X18359523Y3097562D01*
X18359523Y3097562D02*
X18454761Y3002324D01*
X18454761Y3002324D02*
X18502380Y2907086D01*
X18502380Y2907086D02*
X18549999Y2716610D01*
X18549999Y2716610D02*
X18549999Y2573753D01*
X18549999Y2573753D02*
X18502380Y2383277D01*
X18502380Y2383277D02*
X18454761Y2288039D01*
X18454761Y2288039D02*
X18359523Y2192800D01*
X18359523Y2192800D02*
X18216666Y2145181D01*
X18216666Y2145181D02*
X17978571Y2145181D01*
X18883333Y3145181D02*
X19502380Y3145181D01*
X19502380Y3145181D02*
X19169047Y2764229D01*
X19169047Y2764229D02*
X19311904Y2764229D01*
X19311904Y2764229D02*
X19407142Y2716610D01*
X19407142Y2716610D02*
X19454761Y2668991D01*
X19454761Y2668991D02*
X19502380Y2573753D01*
X19502380Y2573753D02*
X19502380Y2335658D01*
X19502380Y2335658D02*
X19454761Y2240420D01*
X19454761Y2240420D02*
X19407142Y2192800D01*
X19407142Y2192800D02*
X19311904Y2145181D01*
X19311904Y2145181D02*
X19026190Y2145181D01*
X19026190Y2145181D02*
X18930952Y2192800D01*
X18930952Y2192800D02*
X18883333Y2240420D01*
X23035677Y14826098D02*
X22702344Y14826098D01*
X22702344Y14302288D02*
X22702344Y15302288D01*
X22702344Y15302288D02*
X23178534Y15302288D01*
X23559487Y14302288D02*
X23559487Y15302288D01*
X24035677Y14302288D02*
X24035677Y15302288D01*
X24035677Y15302288D02*
X24273772Y15302288D01*
X24273772Y15302288D02*
X24416629Y15254669D01*
X24416629Y15254669D02*
X24511867Y15159431D01*
X24511867Y15159431D02*
X24559486Y15064193D01*
X24559486Y15064193D02*
X24607105Y14873717D01*
X24607105Y14873717D02*
X24607105Y14730860D01*
X24607105Y14730860D02*
X24559486Y14540384D01*
X24559486Y14540384D02*
X24511867Y14445146D01*
X24511867Y14445146D02*
X24416629Y14349907D01*
X24416629Y14349907D02*
X24273772Y14302288D01*
X24273772Y14302288D02*
X24035677Y14302288D01*
X24988058Y15207050D02*
X25035677Y15254669D01*
X25035677Y15254669D02*
X25130915Y15302288D01*
X25130915Y15302288D02*
X25369010Y15302288D01*
X25369010Y15302288D02*
X25464248Y15254669D01*
X25464248Y15254669D02*
X25511867Y15207050D01*
X25511867Y15207050D02*
X25559486Y15111812D01*
X25559486Y15111812D02*
X25559486Y15016574D01*
X25559486Y15016574D02*
X25511867Y14873717D01*
X25511867Y14873717D02*
X24940439Y14302288D01*
X24940439Y14302288D02*
X25559486Y14302288D01*
X13583333Y12995181D02*
X13250000Y13471372D01*
X13011905Y12995181D02*
X13011905Y13995181D01*
X13011905Y13995181D02*
X13392857Y13995181D01*
X13392857Y13995181D02*
X13488095Y13947562D01*
X13488095Y13947562D02*
X13535714Y13899943D01*
X13535714Y13899943D02*
X13583333Y13804705D01*
X13583333Y13804705D02*
X13583333Y13661848D01*
X13583333Y13661848D02*
X13535714Y13566610D01*
X13535714Y13566610D02*
X13488095Y13518991D01*
X13488095Y13518991D02*
X13392857Y13471372D01*
X13392857Y13471372D02*
X13011905Y13471372D01*
X14535714Y12995181D02*
X13964286Y12995181D01*
X14250000Y12995181D02*
X14250000Y13995181D01*
X14250000Y13995181D02*
X14154762Y13852324D01*
X14154762Y13852324D02*
X14059524Y13757086D01*
X14059524Y13757086D02*
X13964286Y13709467D01*
X14369011Y14252288D02*
X14369011Y15252288D01*
X14369011Y15252288D02*
X14607106Y15252288D01*
X14607106Y15252288D02*
X14749963Y15204669D01*
X14749963Y15204669D02*
X14845201Y15109431D01*
X14845201Y15109431D02*
X14892820Y15014193D01*
X14892820Y15014193D02*
X14940439Y14823717D01*
X14940439Y14823717D02*
X14940439Y14680860D01*
X14940439Y14680860D02*
X14892820Y14490384D01*
X14892820Y14490384D02*
X14845201Y14395146D01*
X14845201Y14395146D02*
X14749963Y14299907D01*
X14749963Y14299907D02*
X14607106Y14252288D01*
X14607106Y14252288D02*
X14369011Y14252288D01*
X15892820Y14252288D02*
X15321392Y14252288D01*
X15607106Y14252288D02*
X15607106Y15252288D01*
X15607106Y15252288D02*
X15511868Y15109431D01*
X15511868Y15109431D02*
X15416630Y15014193D01*
X15416630Y15014193D02*
X15321392Y14966574D01*
X14140439Y8247527D02*
X14092820Y8199907D01*
X14092820Y8199907D02*
X13949963Y8152288D01*
X13949963Y8152288D02*
X13854725Y8152288D01*
X13854725Y8152288D02*
X13711868Y8199907D01*
X13711868Y8199907D02*
X13616630Y8295146D01*
X13616630Y8295146D02*
X13569011Y8390384D01*
X13569011Y8390384D02*
X13521392Y8580860D01*
X13521392Y8580860D02*
X13521392Y8723717D01*
X13521392Y8723717D02*
X13569011Y8914193D01*
X13569011Y8914193D02*
X13616630Y9009431D01*
X13616630Y9009431D02*
X13711868Y9104669D01*
X13711868Y9104669D02*
X13854725Y9152288D01*
X13854725Y9152288D02*
X13949963Y9152288D01*
X13949963Y9152288D02*
X14092820Y9104669D01*
X14092820Y9104669D02*
X14140439Y9057050D01*
X15092820Y8152288D02*
X14521392Y8152288D01*
X14807106Y8152288D02*
X14807106Y9152288D01*
X14807106Y9152288D02*
X14711868Y9009431D01*
X14711868Y9009431D02*
X14616630Y8914193D01*
X14616630Y8914193D02*
X14521392Y8866574D01*
D12*
%TO.C,TP2*%
X20000000Y13200000D02*
X21900000Y13200000D01*
X20000000Y11300000D02*
X20000000Y13200000D01*
X21900000Y13200000D02*
X21900000Y11300000D01*
X21900000Y11300000D02*
X20000000Y11300000D01*
%TO.C,TP1*%
X22150000Y950000D02*
X20250000Y950000D01*
X22150000Y2850000D02*
X22150000Y950000D01*
X20250000Y950000D02*
X20250000Y2850000D01*
X20250000Y2850000D02*
X22150000Y2850000D01*
%TO.C,F2*%
X11605042Y10697107D02*
X12809170Y10697107D01*
X11605042Y12517107D02*
X12809170Y12517107D01*
%TO.C,J2*%
X2047106Y2707107D02*
X147106Y2707107D01*
X5947106Y2707107D02*
X3947106Y2707107D01*
X147106Y12107107D02*
X147106Y2707107D01*
X2047106Y12107107D02*
X147106Y12107107D01*
X5947106Y12107107D02*
X3947106Y12107107D01*
%TO.C,R5*%
X10844848Y8134607D02*
X11319364Y8134607D01*
X10844848Y9179607D02*
X11319364Y9179607D01*
%TO.C,R4*%
X10894848Y5134607D02*
X11369364Y5134607D01*
X10894848Y6179607D02*
X11369364Y6179607D01*
%TO.C,U1*%
X17827106Y10467107D02*
X17587106Y10797107D01*
X18067106Y10797107D01*
X17827106Y10467107D01*
G36*
X17827106Y10467107D02*
G01*
X17587106Y10797107D01*
X18067106Y10797107D01*
X17827106Y10467107D01*
G37*
X22867106Y3747107D02*
X22867106Y5007107D01*
X22867106Y10567107D02*
X22867106Y9307107D01*
X19107106Y3747107D02*
X22867106Y3747107D01*
X19107106Y10567107D02*
X22867106Y10567107D01*
%TO.C,C2*%
X14934942Y4317107D02*
X14719270Y4317107D01*
X14934942Y3597107D02*
X14719270Y3597107D01*
%TO.C,R1*%
X18270747Y11927107D02*
X17963465Y11927107D01*
X18270747Y12687107D02*
X17963465Y12687107D01*
%TO.C,D1*%
X19342106Y13122107D02*
X19342106Y14592107D01*
X19342106Y14592107D02*
X17057106Y14592107D01*
X17057106Y13122107D02*
X19342106Y13122107D01*
%TO.C,C1*%
X14872686Y6597107D02*
X14591526Y6597107D01*
X14872686Y7617107D02*
X14591526Y7617107D01*
%TD*%
M02*
