%TF.GenerationSoftware,KiCad,Pcbnew,9.0.7*%
%TF.CreationDate,2026-01-31T19:55:17-05:00*%
%TF.ProjectId,LDORegulator,4c444f52-6567-4756-9c61-746f722e6b69,rev?*%
%TF.SameCoordinates,PX737bb1ePY5e3ad43*%
%TF.FileFunction,Copper,L2,Bot*%
%TF.FilePolarity,Positive*%
%FSLAX46Y46*%
G04 Gerber Fmt 4.6, Leading zero omitted, Abs format (unit mm)*
G04 Created by KiCad (PCBNEW 9.0.7) date 2026-01-31 19:55:17*
%MOMM*%
%LPD*%
G01*
G04 APERTURE LIST*
%TA.AperFunction,HeatsinkPad*%
%ADD10O,1.600000X1.000000*%
%TD*%
%TA.AperFunction,HeatsinkPad*%
%ADD11O,2.100000X1.000000*%
%TD*%
%TA.AperFunction,ViaPad*%
%ADD12C,0.700000*%
%TD*%
G04 APERTURE END LIST*
D10*
%TO.P,J2,S1,SHIELD*%
%TO.N,GND*%
X2997106Y3087107D03*
D11*
X7177106Y3087107D03*
D10*
X2997106Y11727107D03*
D11*
X7177106Y11727107D03*
%TD*%
D12*
%TO.N,GND*%
X6557106Y607107D03*
X1507106Y507107D03*
X16957106Y1007107D03*
X15907106Y2357107D03*
X13307106Y1007107D03*
X9907106Y1057107D03*
X10657106Y2207107D03*
X21957106Y13707107D03*
X20157106Y15007107D03*
X12207106Y14857107D03*
X9257106Y14807107D03*
X9457106Y4157107D03*
X12857106Y8307107D03*
X12857106Y9057107D03*
X13647106Y3957107D03*
X13107106Y5057107D03*
X13257106Y5857107D03*
X2007106Y1807107D03*
X2907106Y1807107D03*
X6207106Y1807107D03*
X7207106Y1807107D03*
X1007106Y12807107D03*
X3307106Y12907107D03*
X7207106Y12807107D03*
X6307106Y12807107D03*
X13107106Y6707107D03*
X13107106Y7407107D03*
X16407106Y9107107D03*
X16407106Y9907107D03*
X16907106Y12307107D03*
%TD*%
%TA.AperFunction,Conductor*%
%TO.N,GND*%
G36*
X25610720Y15706251D02*
G01*
X25736323Y15693880D01*
X25750541Y15691052D01*
X25867823Y15655476D01*
X25881218Y15649927D01*
X25989299Y15592156D01*
X26001360Y15584097D01*
X26096092Y15506352D01*
X26106350Y15496094D01*
X26184095Y15401362D01*
X26192154Y15389301D01*
X26249923Y15281224D01*
X26255475Y15267821D01*
X26291049Y15150548D01*
X26293879Y15136321D01*
X26306250Y15010723D01*
X26306606Y15003469D01*
X26306606Y710746D01*
X26306250Y703493D01*
X26306250Y703492D01*
X26293879Y577894D01*
X26291049Y563667D01*
X26255475Y446394D01*
X26249923Y432991D01*
X26192154Y324914D01*
X26184095Y312853D01*
X26106350Y218121D01*
X26096092Y207863D01*
X26001360Y130118D01*
X25989299Y122059D01*
X25881222Y64290D01*
X25867819Y58738D01*
X25750546Y23164D01*
X25736319Y20334D01*
X25626524Y9520D01*
X25610719Y7963D01*
X25603467Y7607D01*
X710745Y7607D01*
X703492Y7963D01*
X682938Y9988D01*
X577892Y20334D01*
X563665Y23164D01*
X446392Y58738D01*
X432989Y64290D01*
X324912Y122059D01*
X312851Y130118D01*
X218119Y207863D01*
X207861Y218121D01*
X130116Y312853D01*
X122057Y324914D01*
X64288Y432991D01*
X58736Y446394D01*
X23161Y563672D01*
X20333Y577890D01*
X7962Y703493D01*
X7606Y710746D01*
X7606Y3337108D01*
X1727242Y3337108D01*
X1727243Y3337107D01*
X2530118Y3337107D01*
X2512901Y3327167D01*
X2457046Y3271312D01*
X2417550Y3202903D01*
X2397106Y3126603D01*
X2397106Y3047611D01*
X2417550Y2971311D01*
X2457046Y2902902D01*
X2512901Y2847047D01*
X2530118Y2837107D01*
X1727243Y2837107D01*
X1735533Y2795425D01*
X1735536Y2795414D01*
X1810915Y2613432D01*
X1920352Y2449648D01*
X2059646Y2310354D01*
X2223430Y2200917D01*
X2405412Y2125538D01*
X2405423Y2125535D01*
X2598616Y2087107D01*
X2747106Y2087107D01*
X2747106Y2787107D01*
X3247106Y2787107D01*
X3247106Y2087107D01*
X3395596Y2087107D01*
X3588788Y2125535D01*
X3588799Y2125538D01*
X3770781Y2200917D01*
X3934565Y2310354D01*
X4073859Y2449648D01*
X4183296Y2613432D01*
X4258675Y2795414D01*
X4258678Y2795425D01*
X4266969Y2837107D01*
X3464094Y2837107D01*
X3481311Y2847047D01*
X3537166Y2902902D01*
X3576662Y2971311D01*
X3597106Y3047611D01*
X3597106Y3126603D01*
X3576662Y3202903D01*
X3537166Y3271312D01*
X3481311Y3327167D01*
X3464094Y3337107D01*
X4266969Y3337107D01*
X4266969Y3337108D01*
X5657242Y3337108D01*
X5657243Y3337107D01*
X6460118Y3337107D01*
X6442901Y3327167D01*
X6387046Y3271312D01*
X6347550Y3202903D01*
X6327106Y3126603D01*
X6327106Y3047611D01*
X6347550Y2971311D01*
X6387046Y2902902D01*
X6442901Y2847047D01*
X6460118Y2837107D01*
X5657243Y2837107D01*
X5665533Y2795425D01*
X5665536Y2795414D01*
X5740915Y2613432D01*
X5850352Y2449648D01*
X5989646Y2310354D01*
X6153430Y2200917D01*
X6335412Y2125538D01*
X6335423Y2125535D01*
X6528616Y2087107D01*
X6927106Y2087107D01*
X6927106Y2787107D01*
X7427106Y2787107D01*
X7427106Y2087107D01*
X7825596Y2087107D01*
X8018788Y2125535D01*
X8018799Y2125538D01*
X8200781Y2200917D01*
X8364565Y2310354D01*
X8503859Y2449648D01*
X8613296Y2613432D01*
X8688675Y2795414D01*
X8688678Y2795425D01*
X8696969Y2837107D01*
X7894094Y2837107D01*
X7911311Y2847047D01*
X7967166Y2902902D01*
X8006662Y2971311D01*
X8027106Y3047611D01*
X8027106Y3126603D01*
X8006662Y3202903D01*
X7967166Y3271312D01*
X7911311Y3327167D01*
X7894094Y3337107D01*
X8696969Y3337107D01*
X8696969Y3337108D01*
X8688678Y3378790D01*
X8688675Y3378801D01*
X8613296Y3560783D01*
X8503859Y3724567D01*
X8364565Y3863861D01*
X8200781Y3973298D01*
X8018799Y4048677D01*
X8018788Y4048680D01*
X7825596Y4087107D01*
X7427106Y4087107D01*
X7427106Y3387107D01*
X6927106Y3387107D01*
X6927106Y3971511D01*
X6948780Y4023837D01*
X6964103Y4035596D01*
X7000471Y4056592D01*
X7107621Y4163742D01*
X7183387Y4294972D01*
X7222605Y4441339D01*
X7222606Y4441339D01*
X7222606Y4592875D01*
X7222605Y4592876D01*
X7183388Y4739238D01*
X7183387Y4739242D01*
X7107621Y4870472D01*
X7000471Y4977622D01*
X7000468Y4977624D01*
X6869245Y5053386D01*
X6869236Y5053390D01*
X6722874Y5092607D01*
X6722872Y5092607D01*
X6571340Y5092607D01*
X6571338Y5092607D01*
X6424975Y5053390D01*
X6424966Y5053386D01*
X6293743Y4977624D01*
X6186589Y4870470D01*
X6110827Y4739247D01*
X6110823Y4739238D01*
X6071606Y4592876D01*
X6071606Y4441339D01*
X6110823Y4294977D01*
X6110827Y4294968D01*
X6186589Y4163745D01*
X6186591Y4163742D01*
X6233232Y4117101D01*
X6254906Y4064776D01*
X6233232Y4012450D01*
X6209226Y3996409D01*
X6153427Y3973296D01*
X5989646Y3863861D01*
X5850352Y3724567D01*
X5740915Y3560783D01*
X5665536Y3378801D01*
X5665533Y3378790D01*
X5657242Y3337108D01*
X4266969Y3337108D01*
X4258678Y3378790D01*
X4258675Y3378801D01*
X4183296Y3560783D01*
X4073859Y3724567D01*
X3934565Y3863861D01*
X3770781Y3973298D01*
X3588799Y4048677D01*
X3588788Y4048680D01*
X3395596Y4087107D01*
X3247106Y4087107D01*
X3247106Y3387107D01*
X2747106Y3387107D01*
X2747106Y4087107D01*
X2598616Y4087107D01*
X2405423Y4048680D01*
X2405412Y4048677D01*
X2223430Y3973298D01*
X2059646Y3863861D01*
X1920352Y3724567D01*
X1810915Y3560783D01*
X1735536Y3378801D01*
X1735533Y3378790D01*
X1727242Y3337108D01*
X7606Y3337108D01*
X7606Y11977108D01*
X1727242Y11977108D01*
X1727243Y11977107D01*
X2530118Y11977107D01*
X2512901Y11967167D01*
X2457046Y11911312D01*
X2417550Y11842903D01*
X2397106Y11766603D01*
X2397106Y11687611D01*
X2417550Y11611311D01*
X2457046Y11542902D01*
X2512901Y11487047D01*
X2530118Y11477107D01*
X1727243Y11477107D01*
X1735533Y11435425D01*
X1735536Y11435414D01*
X1810915Y11253432D01*
X1920352Y11089648D01*
X2059646Y10950354D01*
X2223430Y10840917D01*
X2405412Y10765538D01*
X2405423Y10765535D01*
X2598616Y10727107D01*
X2747106Y10727107D01*
X2747106Y11427107D01*
X3247106Y11427107D01*
X3247106Y10727107D01*
X3395596Y10727107D01*
X3588788Y10765535D01*
X3588799Y10765538D01*
X3770781Y10840917D01*
X3934565Y10950354D01*
X4073859Y11089648D01*
X4183296Y11253432D01*
X4258675Y11435414D01*
X4258678Y11435425D01*
X4266969Y11477107D01*
X3464094Y11477107D01*
X3481311Y11487047D01*
X3537166Y11542902D01*
X3576662Y11611311D01*
X3597106Y11687611D01*
X3597106Y11766603D01*
X3576662Y11842903D01*
X3537166Y11911312D01*
X3481311Y11967167D01*
X3464094Y11977107D01*
X4266969Y11977107D01*
X4266969Y11977108D01*
X5657242Y11977108D01*
X5657243Y11977107D01*
X6460118Y11977107D01*
X6442901Y11967167D01*
X6387046Y11911312D01*
X6347550Y11842903D01*
X6327106Y11766603D01*
X6327106Y11687611D01*
X6347550Y11611311D01*
X6387046Y11542902D01*
X6442901Y11487047D01*
X6460118Y11477107D01*
X5657243Y11477107D01*
X5665533Y11435425D01*
X5665536Y11435414D01*
X5740915Y11253432D01*
X5850352Y11089648D01*
X5989646Y10950354D01*
X6153430Y10840917D01*
X6209224Y10817807D01*
X6249273Y10777759D01*
X6249273Y10721122D01*
X6233233Y10697115D01*
X6186590Y10650471D01*
X6110827Y10519247D01*
X6110823Y10519238D01*
X6071606Y10372876D01*
X6071606Y10221339D01*
X6110823Y10074977D01*
X6110824Y10074974D01*
X6110825Y10074972D01*
X6186591Y9943742D01*
X6293741Y9836592D01*
X6424971Y9760826D01*
X6571337Y9721608D01*
X6571338Y9721607D01*
X6571340Y9721607D01*
X6722874Y9721607D01*
X6722874Y9721608D01*
X6869241Y9760826D01*
X7000471Y9836592D01*
X7107621Y9943742D01*
X7183387Y10074972D01*
X7222605Y10221339D01*
X7222606Y10221339D01*
X7222606Y10372875D01*
X7222605Y10372876D01*
X7183388Y10519238D01*
X7183387Y10519242D01*
X7107621Y10650472D01*
X7000471Y10757622D01*
X7000468Y10757624D01*
X7000467Y10757625D01*
X6964106Y10778618D01*
X6929627Y10823552D01*
X6927106Y10842704D01*
X6927106Y11427107D01*
X7427106Y11427107D01*
X7427106Y10727107D01*
X7825596Y10727107D01*
X8018788Y10765535D01*
X8018799Y10765538D01*
X8200781Y10840917D01*
X8364565Y10950354D01*
X8503859Y11089648D01*
X8613296Y11253432D01*
X8688675Y11435414D01*
X8688678Y11435425D01*
X8696969Y11477107D01*
X7894094Y11477107D01*
X7911311Y11487047D01*
X7967166Y11542902D01*
X8006662Y11611311D01*
X8027106Y11687611D01*
X8027106Y11766603D01*
X8006662Y11842903D01*
X7967166Y11911312D01*
X7911311Y11967167D01*
X7894094Y11977107D01*
X8696969Y11977107D01*
X8696969Y11977108D01*
X8688678Y12018790D01*
X8688675Y12018801D01*
X8613296Y12200783D01*
X8503859Y12364567D01*
X8364565Y12503861D01*
X8200781Y12613298D01*
X8018799Y12688677D01*
X8018788Y12688680D01*
X7825596Y12727107D01*
X7427106Y12727107D01*
X7427106Y12027107D01*
X6927106Y12027107D01*
X6927106Y12727107D01*
X6528616Y12727107D01*
X6335423Y12688680D01*
X6335412Y12688677D01*
X6153430Y12613298D01*
X5989646Y12503861D01*
X5850352Y12364567D01*
X5740915Y12200783D01*
X5665536Y12018801D01*
X5665533Y12018790D01*
X5657242Y11977108D01*
X4266969Y11977108D01*
X4258678Y12018790D01*
X4258675Y12018801D01*
X4183296Y12200783D01*
X4073859Y12364567D01*
X3934565Y12503861D01*
X3770781Y12613298D01*
X3588799Y12688677D01*
X3588788Y12688680D01*
X3395596Y12727107D01*
X3247106Y12727107D01*
X3247106Y12027107D01*
X2747106Y12027107D01*
X2747106Y12727107D01*
X2598616Y12727107D01*
X2405423Y12688680D01*
X2405412Y12688677D01*
X2223430Y12613298D01*
X2059646Y12503861D01*
X1920352Y12364567D01*
X1810915Y12200783D01*
X1735536Y12018801D01*
X1735533Y12018790D01*
X1727242Y11977108D01*
X7606Y11977108D01*
X7606Y15003469D01*
X7962Y15010722D01*
X7962Y15010723D01*
X20333Y15136327D01*
X23160Y15150541D01*
X58738Y15267829D01*
X64284Y15281217D01*
X122060Y15389307D01*
X130112Y15401358D01*
X207862Y15496096D01*
X218119Y15506352D01*
X312855Y15584101D01*
X324906Y15592153D01*
X432996Y15649929D01*
X446384Y15655475D01*
X563672Y15691053D01*
X577886Y15693880D01*
X703492Y15706251D01*
X710745Y15706607D01*
X754701Y15706607D01*
X25559511Y15706607D01*
X25603467Y15706607D01*
X25610720Y15706251D01*
G37*
%TD.AperFunction*%
%TD*%
M02*
