%TF.GenerationSoftware,KiCad,Pcbnew,9.0.7*%
%TF.CreationDate,2026-01-31T19:55:17-05:00*%
%TF.ProjectId,LDORegulator,4c444f52-6567-4756-9c61-746f722e6b69,rev?*%
%TF.SameCoordinates,PX737bb1ePY5e3ad43*%
%TF.FileFunction,Copper,L1,Top*%
%TF.FilePolarity,Positive*%
%FSLAX46Y46*%
G04 Gerber Fmt 4.6, Leading zero omitted, Abs format (unit mm)*
G04 Created by KiCad (PCBNEW 9.0.7) date 2026-01-31 19:55:17*
%MOMM*%
%LPD*%
G01*
G04 APERTURE LIST*
G04 Aperture macros list*
%AMRoundRect*
0 Rectangle with rounded corners*
0 $1 Rounding radius*
0 $2 $3 $4 $5 $6 $7 $8 $9 X,Y pos of 4 corners*
0 Add a 4 corners polygon primitive as box body*
4,1,4,$2,$3,$4,$5,$6,$7,$8,$9,$2,$3,0*
0 Add four circle primitives for the rounded corners*
1,1,$1+$1,$2,$3*
1,1,$1+$1,$4,$5*
1,1,$1+$1,$6,$7*
1,1,$1+$1,$8,$9*
0 Add four rect primitives between the rounded corners*
20,1,$1+$1,$2,$3,$4,$5,0*
20,1,$1+$1,$4,$5,$6,$7,0*
20,1,$1+$1,$6,$7,$8,$9,0*
20,1,$1+$1,$8,$9,$2,$3,0*%
G04 Aperture macros list end*
%TA.AperFunction,SMDPad,CuDef*%
%ADD10R,1.500000X1.500000*%
%TD*%
%TA.AperFunction,SMDPad,CuDef*%
%ADD11RoundRect,0.250000X-0.375000X-0.625000X0.375000X-0.625000X0.375000X0.625000X-0.375000X0.625000X0*%
%TD*%
%TA.AperFunction,HeatsinkPad*%
%ADD12O,1.600000X1.000000*%
%TD*%
%TA.AperFunction,HeatsinkPad*%
%ADD13O,2.100000X1.000000*%
%TD*%
%TA.AperFunction,SMDPad,CuDef*%
%ADD14R,1.450000X0.600000*%
%TD*%
%TA.AperFunction,SMDPad,CuDef*%
%ADD15R,1.450000X0.300000*%
%TD*%
%TA.AperFunction,SMDPad,CuDef*%
%ADD16RoundRect,0.200000X-0.200000X-0.275000X0.200000X-0.275000X0.200000X0.275000X-0.200000X0.275000X0*%
%TD*%
%TA.AperFunction,SMDPad,CuDef*%
%ADD17RoundRect,0.375000X-0.625000X-0.375000X0.625000X-0.375000X0.625000X0.375000X-0.625000X0.375000X0*%
%TD*%
%TA.AperFunction,SMDPad,CuDef*%
%ADD18RoundRect,0.500000X-0.500000X-1.400000X0.500000X-1.400000X0.500000X1.400000X-0.500000X1.400000X0*%
%TD*%
%TA.AperFunction,SMDPad,CuDef*%
%ADD19RoundRect,0.140000X0.140000X0.170000X-0.140000X0.170000X-0.140000X-0.170000X0.140000X-0.170000X0*%
%TD*%
%TA.AperFunction,SMDPad,CuDef*%
%ADD20C,1.000000*%
%TD*%
%TA.AperFunction,SMDPad,CuDef*%
%ADD21RoundRect,0.135000X0.135000X0.185000X-0.135000X0.185000X-0.135000X-0.185000X0.135000X-0.185000X0*%
%TD*%
%TA.AperFunction,SMDPad,CuDef*%
%ADD22RoundRect,0.218750X0.218750X0.256250X-0.218750X0.256250X-0.218750X-0.256250X0.218750X-0.256250X0*%
%TD*%
%TA.AperFunction,SMDPad,CuDef*%
%ADD23RoundRect,0.225000X0.225000X0.250000X-0.225000X0.250000X-0.225000X-0.250000X0.225000X-0.250000X0*%
%TD*%
%TA.AperFunction,ViaPad*%
%ADD24C,0.700000*%
%TD*%
%TA.AperFunction,Conductor*%
%ADD25C,0.800000*%
%TD*%
%TA.AperFunction,Conductor*%
%ADD26C,0.200000*%
%TD*%
%TA.AperFunction,Conductor*%
%ADD27C,0.500000*%
%TD*%
G04 APERTURE END LIST*
D10*
%TO.P,TP2,1,1*%
%TO.N,GND*%
X20950000Y12250000D03*
%TD*%
%TO.P,TP1,1,1*%
%TO.N,/LDO_Vout_3V3*%
X21200000Y1900000D03*
%TD*%
D11*
%TO.P,F2,2*%
%TO.N,+5V*%
X13607106Y11607107D03*
%TO.P,F2,1*%
%TO.N,Net-(F2-Pad1)*%
X10807106Y11607107D03*
%TD*%
D12*
%TO.P,J2,S1,SHIELD*%
%TO.N,GND*%
X2997106Y3087107D03*
D13*
X7177106Y3087107D03*
D12*
X2997106Y11727107D03*
D13*
X7177106Y11727107D03*
D14*
%TO.P,J2,B12,GND*%
X8092106Y10657107D03*
%TO.P,J2,B9,VBUS*%
%TO.N,Net-(F2-Pad1)*%
X8092106Y9857107D03*
D15*
%TO.P,J2,B8,SBU2*%
%TO.N,unconnected-(J2-SBU2-PadB8)*%
X8092106Y9157107D03*
%TO.P,J2,B7,D-*%
%TO.N,unconnected-(J2-D--PadB7)*%
X8092106Y8157107D03*
%TO.P,J2,B6,D+*%
%TO.N,unconnected-(J2-D+-PadB6)*%
X8092106Y6657107D03*
%TO.P,J2,B5,CC2*%
%TO.N,/CC_2*%
X8092106Y5657107D03*
D14*
%TO.P,J2,B4,VBUS*%
%TO.N,Net-(F2-Pad1)*%
X8092106Y4957107D03*
%TO.P,J2,B1,GND*%
%TO.N,GND*%
X8092106Y4157107D03*
%TO.P,J2,A12,GND*%
X8092106Y4157107D03*
%TO.P,J2,A9,VBUS*%
%TO.N,Net-(F2-Pad1)*%
X8092106Y4957107D03*
D15*
%TO.P,J2,A8,SBU1*%
%TO.N,unconnected-(J2-SBU1-PadA8)*%
X8092106Y6157107D03*
%TO.P,J2,A7,D-*%
%TO.N,unconnected-(J2-D--PadA7)*%
X8092106Y7157107D03*
%TO.P,J2,A6,D+*%
%TO.N,unconnected-(J2-D+-PadA6)*%
X8092106Y7657107D03*
%TO.P,J2,A5,CC1*%
%TO.N,/CC_1*%
X8092106Y8657107D03*
D14*
%TO.P,J2,A4,VBUS*%
%TO.N,Net-(F2-Pad1)*%
X8092106Y9857107D03*
%TO.P,J2,A1,GND*%
%TO.N,GND*%
X8092106Y10657107D03*
%TD*%
D16*
%TO.P,R5,2*%
%TO.N,GND*%
X11907106Y8657107D03*
%TO.P,R5,1*%
%TO.N,/CC_1*%
X10257106Y8657107D03*
%TD*%
%TO.P,R4,2*%
%TO.N,GND*%
X11957106Y5657107D03*
%TO.P,R4,1*%
%TO.N,/CC_2*%
X10307106Y5657107D03*
%TD*%
D17*
%TO.P,U1,3,VI*%
%TO.N,/LDO_Vin*%
X17807106Y4857107D03*
D18*
%TO.P,U1,2,VO*%
%TO.N,/LDO_Vout_3V3*%
X24107106Y7157107D03*
D17*
X17807106Y7157107D03*
%TO.P,U1,1,GND*%
%TO.N,GND*%
X17807106Y9457107D03*
%TD*%
D19*
%TO.P,C2,2*%
%TO.N,GND*%
X14347106Y3957107D03*
%TO.P,C2,1*%
%TO.N,/LDO_Vin*%
X15307106Y3957107D03*
%TD*%
D20*
%TO.P,FID1,*%
%TO.N,*%
X2007106Y14207107D03*
%TD*%
%TO.P,FID3,*%
%TO.N,*%
X24607106Y1707107D03*
%TD*%
%TO.P,FID2,*%
%TO.N,*%
X24107106Y12807107D03*
%TD*%
D21*
%TO.P,R1,1*%
%TO.N,Net-(D1-K)*%
X18627106Y12307107D03*
%TO.P,R1,2*%
%TO.N,GND*%
X17607106Y12307107D03*
%TD*%
D22*
%TO.P,D1,1,K*%
%TO.N,Net-(D1-K)*%
X18644606Y13857107D03*
%TO.P,D1,2,A*%
%TO.N,/LDO_Vout_3V3*%
X17069606Y13857107D03*
%TD*%
D23*
%TO.P,C1,1*%
%TO.N,/LDO_Vout_3V3*%
X15507106Y7107107D03*
%TO.P,C1,2*%
%TO.N,GND*%
X13957106Y7107107D03*
%TD*%
D24*
%TO.N,GND*%
X6557106Y607107D03*
X1507106Y507107D03*
X16957106Y1007107D03*
X15907106Y2357107D03*
X13307106Y1007107D03*
X9907106Y1057107D03*
X10657106Y2207107D03*
X21957106Y13707107D03*
X20157106Y15007107D03*
X12207106Y14857107D03*
X9257106Y14807107D03*
X9457106Y4157107D03*
X12857106Y8307107D03*
X12857106Y9057107D03*
X13647106Y3957107D03*
X13107106Y5057107D03*
X13257106Y5857107D03*
X2007106Y1807107D03*
X2907106Y1807107D03*
X6207106Y1807107D03*
X7207106Y1807107D03*
X1007106Y12807107D03*
X3307106Y12907107D03*
X7207106Y12807107D03*
X6307106Y12807107D03*
X13107106Y6707107D03*
X13107106Y7407107D03*
X16407106Y9107107D03*
X16407106Y9907107D03*
X16907106Y12307107D03*
%TD*%
D25*
%TO.N,/LDO_Vin*%
X16957106Y4857107D02*
X17807106Y4857107D01*
X16057106Y3957107D02*
X16957106Y4857107D01*
X15307106Y3957107D02*
X16057106Y3957107D01*
D26*
%TO.N,Net-(F2-Pad1)*%
X9707106Y10507107D02*
X9707106Y10357106D01*
X9707106Y10357106D02*
X9550000Y10200000D01*
X10807106Y11607107D02*
X9707106Y10507107D01*
X9257107Y9907107D02*
X8142106Y9907107D01*
X9550000Y10200000D02*
X9257107Y9907107D01*
X8142106Y9907107D02*
X8092106Y9857107D01*
D27*
%TO.N,GND*%
X19457107Y9457107D02*
X20950000Y10950000D01*
X20950000Y10950000D02*
X20950000Y12250000D01*
X17807106Y9457107D02*
X19457107Y9457107D01*
D25*
%TO.N,/LDO_Vout_3V3*%
X22600000Y1900000D02*
X21200000Y1900000D01*
X24107106Y3407106D02*
X22600000Y1900000D01*
X24107106Y7157107D02*
X24107106Y3407106D01*
D26*
%TO.N,Net-(F2-Pad1)*%
X7066106Y5058107D02*
X7167106Y4957107D01*
X7167106Y4957107D02*
X8092106Y4957107D01*
X7066106Y9466107D02*
X7066106Y5058107D01*
X7457106Y9857107D02*
X7066106Y9466107D01*
X8092106Y9857107D02*
X7457106Y9857107D01*
D27*
%TO.N,GND*%
X8092106Y4002107D02*
X7177106Y3087107D01*
X8092106Y4157107D02*
X8092106Y4002107D01*
X8092106Y10812107D02*
X7177106Y11727107D01*
X8092106Y10657107D02*
X8092106Y10812107D01*
X8092106Y4157107D02*
X9457106Y4157107D01*
X13647106Y3957107D02*
X14347106Y3957107D01*
D25*
%TO.N,/LDO_Vout_3V3*%
X15507106Y8662189D02*
X15507106Y7107107D01*
X15456106Y8713189D02*
X15507106Y8662189D01*
X15456106Y10301025D02*
X15456106Y9513189D01*
X15456106Y9501025D02*
X15456106Y8713189D01*
X15507106Y13257107D02*
X15507106Y10352025D01*
X15456106Y9513189D02*
X15462188Y9507107D01*
X15462188Y9507107D02*
X15456106Y9501025D01*
X15507106Y10352025D02*
X15456106Y10301025D01*
X16107106Y13857107D02*
X15507106Y13257107D01*
X17069606Y13857107D02*
X16107106Y13857107D01*
D26*
%TO.N,/CC_1*%
X9057106Y8657107D02*
X9307106Y8657107D01*
X9307106Y8657107D02*
X10257106Y8657107D01*
X8092106Y8657107D02*
X9057106Y8657107D01*
%TO.N,/CC_2*%
X9107106Y5657107D02*
X10307106Y5657107D01*
X8092106Y5657107D02*
X9107106Y5657107D01*
D27*
%TO.N,GND*%
X2007106Y2097107D02*
X2997106Y3087107D01*
X2007106Y1807107D02*
X2007106Y2097107D01*
X2907106Y2997107D02*
X2997106Y3087107D01*
X2907106Y1807107D02*
X2907106Y2997107D01*
X6207106Y2117107D02*
X7177106Y3087107D01*
X6207106Y1807107D02*
X6207106Y2117107D01*
X7207106Y3057107D02*
X7177106Y3087107D01*
X7207106Y1807107D02*
X7207106Y3057107D01*
X12557106Y5057107D02*
X11957106Y5657107D01*
X13107106Y5057107D02*
X12557106Y5057107D01*
X12257106Y8307107D02*
X11907106Y8657107D01*
X12857106Y8307107D02*
X12257106Y8307107D01*
X12457106Y8657107D02*
X12857106Y9057107D01*
X11907106Y8657107D02*
X12457106Y8657107D01*
X12157106Y5857107D02*
X11957106Y5657107D01*
X13257106Y5857107D02*
X12157106Y5857107D01*
X7177106Y11727107D02*
X7177106Y11937107D01*
X7177106Y11937107D02*
X6307106Y12807107D01*
X7177106Y12777107D02*
X7207106Y12807107D01*
X7177106Y11727107D02*
X7177106Y12777107D01*
X1007106Y12457107D02*
X1007106Y12807107D01*
X1737106Y11727107D02*
X1007106Y12457107D01*
X2997106Y11727107D02*
X1737106Y11727107D01*
X3307106Y12107107D02*
X3307106Y12907107D01*
X2997106Y11797107D02*
X3307106Y12107107D01*
X2997106Y11727107D02*
X2997106Y11797107D01*
X13207106Y5907107D02*
X13257106Y5857107D01*
D26*
%TO.N,Net-(D1-K)*%
X18644606Y12324607D02*
X18627106Y12307107D01*
X18644606Y13857107D02*
X18644606Y12324607D01*
D25*
%TO.N,/LDO_Vout_3V3*%
X24107106Y7157107D02*
X17807106Y7157107D01*
D27*
X15557106Y7157107D02*
X15507106Y7107107D01*
D25*
X17807106Y7157107D02*
X15557106Y7157107D01*
D27*
%TO.N,GND*%
X17607106Y12307107D02*
X16907106Y12307107D01*
X17407106Y9107107D02*
X16407106Y9107107D01*
X17757106Y9457107D02*
X17407106Y9107107D01*
X17757106Y9457107D02*
X17307106Y9907107D01*
X17307106Y9907107D02*
X16407106Y9907107D01*
X17807106Y9457107D02*
X17757106Y9457107D01*
X13807106Y6707107D02*
X13107106Y6707107D01*
X13957106Y6857107D02*
X13807106Y6707107D01*
X13957106Y7107107D02*
X13957106Y6857107D01*
X13707106Y7407107D02*
X13107106Y7407107D01*
X13957106Y7157107D02*
X13707106Y7407107D01*
X13957106Y7107107D02*
X13957106Y7157107D01*
%TD*%
%TA.AperFunction,Conductor*%
%TO.N,GND*%
G36*
X25610720Y15706251D02*
G01*
X25736323Y15693880D01*
X25750541Y15691052D01*
X25867823Y15655476D01*
X25881218Y15649927D01*
X25989299Y15592156D01*
X26001360Y15584097D01*
X26096092Y15506352D01*
X26106350Y15496094D01*
X26184095Y15401362D01*
X26192154Y15389301D01*
X26249923Y15281224D01*
X26255475Y15267821D01*
X26291049Y15150548D01*
X26293879Y15136321D01*
X26302724Y15046516D01*
X26306250Y15010723D01*
X26306606Y15003469D01*
X26306606Y710746D01*
X26306250Y703493D01*
X26306250Y703492D01*
X26293879Y577894D01*
X26291049Y563667D01*
X26255475Y446394D01*
X26249923Y432991D01*
X26192154Y324914D01*
X26184095Y312853D01*
X26106350Y218121D01*
X26096092Y207863D01*
X26001360Y130118D01*
X25989299Y122059D01*
X25881222Y64290D01*
X25867819Y58738D01*
X25750546Y23164D01*
X25736319Y20334D01*
X25626524Y9520D01*
X25610719Y7963D01*
X25603467Y7607D01*
X710745Y7607D01*
X703492Y7963D01*
X682938Y9988D01*
X577892Y20334D01*
X563665Y23164D01*
X446392Y58738D01*
X432989Y64290D01*
X324912Y122059D01*
X312851Y130118D01*
X218119Y207863D01*
X207861Y218121D01*
X130116Y312853D01*
X122057Y324914D01*
X64288Y432991D01*
X58736Y446394D01*
X23161Y563672D01*
X20333Y577890D01*
X7962Y703493D01*
X7606Y710746D01*
X7606Y3337108D01*
X1727242Y3337108D01*
X1727243Y3337107D01*
X2530118Y3337107D01*
X2512901Y3327167D01*
X2457046Y3271312D01*
X2417550Y3202903D01*
X2397106Y3126603D01*
X2397106Y3047611D01*
X2417550Y2971311D01*
X2457046Y2902902D01*
X2512901Y2847047D01*
X2530118Y2837107D01*
X1727243Y2837107D01*
X1735533Y2795425D01*
X1735536Y2795414D01*
X1810915Y2613432D01*
X1920352Y2449648D01*
X2059646Y2310354D01*
X2223430Y2200917D01*
X2405412Y2125538D01*
X2405423Y2125535D01*
X2598616Y2087107D01*
X2747106Y2087107D01*
X2747106Y2787107D01*
X3247106Y2787107D01*
X3247106Y2087107D01*
X3395596Y2087107D01*
X3588788Y2125535D01*
X3588799Y2125538D01*
X3770781Y2200917D01*
X3934565Y2310354D01*
X4073859Y2449648D01*
X4183296Y2613432D01*
X4258675Y2795414D01*
X4258678Y2795425D01*
X4266969Y2837107D01*
X3464094Y2837107D01*
X3481311Y2847047D01*
X3537166Y2902902D01*
X3576662Y2971311D01*
X3597106Y3047611D01*
X3597106Y3126603D01*
X3576662Y3202903D01*
X3537166Y3271312D01*
X3481311Y3327167D01*
X3464094Y3337107D01*
X4266969Y3337107D01*
X4266969Y3337108D01*
X4258678Y3378790D01*
X4258675Y3378801D01*
X4183296Y3560783D01*
X4073859Y3724567D01*
X3934565Y3863861D01*
X3770781Y3973298D01*
X3588799Y4048677D01*
X3588788Y4048680D01*
X3395596Y4087107D01*
X3247106Y4087107D01*
X3247106Y3387107D01*
X2747106Y3387107D01*
X2747106Y4087107D01*
X2598616Y4087107D01*
X2405423Y4048680D01*
X2405412Y4048677D01*
X2223430Y3973298D01*
X2059646Y3863861D01*
X1920352Y3724567D01*
X1810915Y3560783D01*
X1735536Y3378801D01*
X1735533Y3378790D01*
X1727242Y3337108D01*
X7606Y3337108D01*
X7606Y11977108D01*
X1727242Y11977108D01*
X1727243Y11977107D01*
X2530118Y11977107D01*
X2512901Y11967167D01*
X2457046Y11911312D01*
X2417550Y11842903D01*
X2397106Y11766603D01*
X2397106Y11687611D01*
X2417550Y11611311D01*
X2457046Y11542902D01*
X2512901Y11487047D01*
X2530118Y11477107D01*
X1727243Y11477107D01*
X1735533Y11435425D01*
X1735536Y11435414D01*
X1810915Y11253432D01*
X1920352Y11089648D01*
X2059646Y10950354D01*
X2223430Y10840917D01*
X2405412Y10765538D01*
X2405423Y10765535D01*
X2598616Y10727107D01*
X2747106Y10727107D01*
X2747106Y11427107D01*
X3247106Y11427107D01*
X3247106Y10727107D01*
X3395596Y10727107D01*
X3588788Y10765535D01*
X3588799Y10765538D01*
X3770781Y10840917D01*
X3934565Y10950354D01*
X4073859Y11089648D01*
X4183296Y11253432D01*
X4258675Y11435414D01*
X4258678Y11435425D01*
X4266969Y11477107D01*
X3464094Y11477107D01*
X3481311Y11487047D01*
X3537166Y11542902D01*
X3576662Y11611311D01*
X3597106Y11687611D01*
X3597106Y11766603D01*
X3576662Y11842903D01*
X3537166Y11911312D01*
X3481311Y11967167D01*
X3464094Y11977107D01*
X4266969Y11977107D01*
X4266969Y11977108D01*
X5657242Y11977108D01*
X5657243Y11977107D01*
X6460118Y11977107D01*
X6442901Y11967167D01*
X6387046Y11911312D01*
X6347550Y11842903D01*
X6327106Y11766603D01*
X6327106Y11687611D01*
X6347550Y11611311D01*
X6387046Y11542902D01*
X6442901Y11487047D01*
X6460118Y11477107D01*
X5657243Y11477107D01*
X5665533Y11435425D01*
X5665536Y11435414D01*
X5740915Y11253432D01*
X5850352Y11089648D01*
X5989646Y10950354D01*
X6153430Y10840917D01*
X6209224Y10817807D01*
X6249273Y10777759D01*
X6249273Y10721122D01*
X6233233Y10697115D01*
X6186590Y10650471D01*
X6110827Y10519247D01*
X6110823Y10519238D01*
X6071606Y10372876D01*
X6071606Y10221339D01*
X6110823Y10074977D01*
X6110824Y10074974D01*
X6110825Y10074972D01*
X6186591Y9943742D01*
X6293741Y9836592D01*
X6424971Y9760826D01*
X6571337Y9721608D01*
X6571338Y9721607D01*
X6623950Y9721607D01*
X6676276Y9699933D01*
X6697950Y9647607D01*
X6693559Y9625539D01*
X6694154Y9625379D01*
X6676451Y9559314D01*
X6676452Y9559313D01*
X6665606Y9518833D01*
X6665606Y5166607D01*
X6643932Y5114281D01*
X6591606Y5092607D01*
X6571338Y5092607D01*
X6424975Y5053390D01*
X6424966Y5053386D01*
X6293743Y4977624D01*
X6186589Y4870470D01*
X6110827Y4739247D01*
X6110823Y4739238D01*
X6071606Y4592876D01*
X6071606Y4441339D01*
X6110823Y4294977D01*
X6110827Y4294968D01*
X6164019Y4202837D01*
X6186591Y4163742D01*
X6233232Y4117101D01*
X6254906Y4064776D01*
X6233232Y4012450D01*
X6209226Y3996409D01*
X6153427Y3973296D01*
X5989646Y3863861D01*
X5850352Y3724567D01*
X5740915Y3560783D01*
X5665536Y3378801D01*
X5665533Y3378790D01*
X5657242Y3337108D01*
X5657243Y3337107D01*
X6460118Y3337107D01*
X6442901Y3327167D01*
X6387046Y3271312D01*
X6347550Y3202903D01*
X6327106Y3126603D01*
X6327106Y3047611D01*
X6347550Y2971311D01*
X6387046Y2902902D01*
X6442901Y2847047D01*
X6460118Y2837107D01*
X5657243Y2837107D01*
X5665533Y2795425D01*
X5665536Y2795414D01*
X5740915Y2613432D01*
X5850352Y2449648D01*
X5989646Y2310354D01*
X6153430Y2200917D01*
X6335412Y2125538D01*
X6335423Y2125535D01*
X6528616Y2087107D01*
X6927106Y2087107D01*
X6927106Y2787107D01*
X7427106Y2787107D01*
X7427106Y2087107D01*
X7825596Y2087107D01*
X8018788Y2125535D01*
X8018799Y2125538D01*
X8200781Y2200917D01*
X8364565Y2310354D01*
X8503859Y2449648D01*
X8613296Y2613432D01*
X8688675Y2795414D01*
X8688678Y2795425D01*
X8696969Y2837107D01*
X7894094Y2837107D01*
X7911311Y2847047D01*
X7967166Y2902902D01*
X8006662Y2971311D01*
X8027106Y3047611D01*
X8027106Y3126603D01*
X8006662Y3202903D01*
X7967166Y3271312D01*
X7911311Y3327167D01*
X7894094Y3337107D01*
X8342106Y3337107D01*
X8704378Y3337107D01*
X8741130Y3356751D01*
X8748382Y3357107D01*
X8864935Y3357107D01*
X8924481Y3363510D01*
X8924486Y3363511D01*
X9059193Y3413753D01*
X9059194Y3413754D01*
X9174294Y3499919D01*
X9260459Y3615019D01*
X9260460Y3615020D01*
X9294806Y3707106D01*
X13568315Y3707106D01*
X13569960Y3686197D01*
X13569960Y3686195D01*
X13615074Y3530911D01*
X13697386Y3391730D01*
X13811728Y3277388D01*
X13950909Y3195076D01*
X14097105Y3152602D01*
X14097106Y3152602D01*
X14097106Y3707107D01*
X13568317Y3707107D01*
X13568315Y3707106D01*
X9294806Y3707106D01*
X9310702Y3749727D01*
X9310703Y3749732D01*
X9317106Y3809279D01*
X9317106Y3907107D01*
X8342106Y3907107D01*
X8342106Y3337107D01*
X7894094Y3337107D01*
X7842902Y3366663D01*
X7842106Y3366877D01*
X7842106Y3907107D01*
X7017727Y3907107D01*
X6965401Y3928781D01*
X6943727Y3981107D01*
X6965401Y4033433D01*
X6980727Y4045193D01*
X7000471Y4056592D01*
X7107621Y4163742D01*
X7132658Y4207107D01*
X13568315Y4207107D01*
X14097106Y4207107D01*
X14097106Y4761613D01*
X14597106Y4761613D01*
X14597106Y3152602D01*
X14743302Y3195076D01*
X14882484Y3277388D01*
X14882486Y3277390D01*
X14916382Y3311287D01*
X14968707Y3332963D01*
X14997027Y3327330D01*
X14997421Y3327167D01*
X15102778Y3283527D01*
X15238113Y3256607D01*
X15238115Y3256607D01*
X16126098Y3256607D01*
X16126100Y3256607D01*
X16261434Y3283527D01*
X16388917Y3336332D01*
X16503649Y3412993D01*
X16908879Y3818225D01*
X16961204Y3839898D01*
X16983213Y3836548D01*
X17059449Y3812792D01*
X17127512Y3806607D01*
X17127514Y3806607D01*
X18486698Y3806607D01*
X18486700Y3806607D01*
X18554763Y3812792D01*
X18711376Y3861595D01*
X18851759Y3946459D01*
X18967754Y4062454D01*
X19052618Y4202837D01*
X19101421Y4359450D01*
X19107606Y4427513D01*
X19107606Y5286701D01*
X19101421Y5354764D01*
X19074768Y5440296D01*
X19052619Y5511375D01*
X19052618Y5511377D01*
X18967754Y5651760D01*
X18851759Y5767755D01*
X18711376Y5852619D01*
X18711373Y5852621D01*
X18554767Y5901421D01*
X18554764Y5901422D01*
X18554763Y5901422D01*
X18554761Y5901423D01*
X18554757Y5901423D01*
X18486707Y5907607D01*
X18486700Y5907607D01*
X17127512Y5907607D01*
X17127504Y5907607D01*
X17059454Y5901423D01*
X17059444Y5901421D01*
X16902838Y5852621D01*
X16762452Y5767755D01*
X16646458Y5651761D01*
X16561591Y5511373D01*
X16539443Y5440296D01*
X16512641Y5404438D01*
X16513382Y5403535D01*
X16510566Y5401224D01*
X15788623Y4679281D01*
X15736297Y4657607D01*
X15238113Y4657607D01*
X15199748Y4649976D01*
X15102783Y4630689D01*
X15102773Y4630686D01*
X14997028Y4586885D01*
X14940391Y4586885D01*
X14916384Y4602926D01*
X14882483Y4636827D01*
X14743302Y4719139D01*
X14597106Y4761613D01*
X14097106Y4761613D01*
X13950909Y4719139D01*
X13811728Y4636827D01*
X13697386Y4522485D01*
X13615074Y4383304D01*
X13569961Y4228024D01*
X13568315Y4207107D01*
X7132658Y4207107D01*
X7183387Y4294972D01*
X7190470Y4321408D01*
X7193819Y4328106D01*
X7209983Y4342126D01*
X7223007Y4359099D01*
X7230723Y4360116D01*
X7236605Y4365216D01*
X7257948Y4363700D01*
X7279160Y4366493D01*
X7289897Y4362709D01*
X7297115Y4359522D01*
X7322241Y4356607D01*
X8861970Y4356608D01*
X8887097Y4359522D01*
X8980588Y4400803D01*
X9010477Y4407107D01*
X9317106Y4407107D01*
X9317106Y4504936D01*
X9310703Y4564483D01*
X9310702Y4564488D01*
X9260460Y4699195D01*
X9260459Y4699196D01*
X9174294Y4814296D01*
X9147258Y4834536D01*
X9118358Y4883246D01*
X9117605Y4893769D01*
X9117605Y5182608D01*
X9139279Y5234933D01*
X9191605Y5256607D01*
X9568356Y5256607D01*
X9620682Y5234933D01*
X9637689Y5208469D01*
X9663310Y5139776D01*
X9749560Y5024561D01*
X9852857Y4947233D01*
X9864775Y4938311D01*
X9864776Y4938310D01*
X9975711Y4896935D01*
X9999623Y4888016D01*
X10059233Y4881607D01*
X10554978Y4881608D01*
X10614589Y4888016D01*
X10682013Y4913164D01*
X10749435Y4938310D01*
X10749435Y4938311D01*
X10749437Y4938311D01*
X10864652Y5024561D01*
X10950902Y5139776D01*
X10956204Y5153993D01*
X10994796Y5195446D01*
X11051397Y5197469D01*
X11092851Y5158877D01*
X11096188Y5150149D01*
X11114085Y5092714D01*
X11202031Y4947233D01*
X11322231Y4827033D01*
X11467712Y4739087D01*
X11629996Y4688518D01*
X11630007Y4688516D01*
X11700527Y4682108D01*
X12207106Y4682108D01*
X12213677Y4682108D01*
X12213689Y4682109D01*
X12284208Y4688516D01*
X12284212Y4688517D01*
X12446499Y4739087D01*
X12591980Y4827033D01*
X12712180Y4947233D01*
X12800126Y5092714D01*
X12850695Y5254998D01*
X12850697Y5255008D01*
X12857105Y5325525D01*
X12857106Y5325534D01*
X12857106Y5407107D01*
X12207106Y5407107D01*
X12207106Y4682108D01*
X11700527Y4682108D01*
X11707106Y4682109D01*
X11707106Y5907107D01*
X12207106Y5907107D01*
X12857105Y5907107D01*
X12857105Y5988678D01*
X12857104Y5988691D01*
X12850697Y6059210D01*
X12850696Y6059214D01*
X12800126Y6221501D01*
X12712180Y6366982D01*
X12591980Y6487182D01*
X12446499Y6575128D01*
X12284215Y6625697D01*
X12284205Y6625699D01*
X12213688Y6632107D01*
X12207106Y6632107D01*
X12207106Y5907107D01*
X11707106Y5907107D01*
X11707106Y6632107D01*
X11707105Y6632108D01*
X11700540Y6632107D01*
X11700517Y6632106D01*
X11630003Y6625699D01*
X11629999Y6625698D01*
X11467712Y6575128D01*
X11322231Y6487182D01*
X11202031Y6366982D01*
X11114085Y6221501D01*
X11096188Y6164066D01*
X11059928Y6120557D01*
X11003524Y6115432D01*
X10960015Y6151692D01*
X10956204Y6160222D01*
X10955692Y6161595D01*
X10950902Y6174438D01*
X10864652Y6289653D01*
X10749437Y6375903D01*
X10749436Y6375904D01*
X10749435Y6375905D01*
X10614593Y6426197D01*
X10614590Y6426198D01*
X10614589Y6426198D01*
X10554979Y6432607D01*
X10059233Y6432607D01*
X9999620Y6426198D01*
X9864776Y6375905D01*
X9864775Y6375904D01*
X9749560Y6289653D01*
X9663310Y6174439D01*
X9658008Y6160222D01*
X9637689Y6105747D01*
X9599098Y6064295D01*
X9568356Y6057607D01*
X9191606Y6057607D01*
X9139280Y6079281D01*
X9117606Y6131607D01*
X9117605Y6351971D01*
X9115864Y6366982D01*
X9114691Y6377098D01*
X9114640Y6377212D01*
X9114639Y6377288D01*
X9113229Y6382471D01*
X9114510Y6382820D01*
X9113377Y6431700D01*
X9113229Y6431740D01*
X9113364Y6432240D01*
X9113328Y6433833D01*
X9114641Y6437003D01*
X9114691Y6437116D01*
X9117606Y6462242D01*
X9117605Y6808795D01*
X13007107Y6808795D01*
X13017250Y6709499D01*
X13070558Y6548625D01*
X13159532Y6404376D01*
X13279374Y6284534D01*
X13423623Y6195560D01*
X13584497Y6142252D01*
X13683795Y6132108D01*
X13707106Y6132108D01*
X13707106Y6857107D01*
X13007107Y6857107D01*
X13007107Y6808795D01*
X9117605Y6808795D01*
X9117605Y6851971D01*
X9114691Y6877098D01*
X9112643Y6881735D01*
X9111268Y6886472D01*
X9113878Y6910085D01*
X9113377Y6931700D01*
X9113229Y6931740D01*
X9113364Y6932240D01*
X9113328Y6933833D01*
X9114641Y6937003D01*
X9114691Y6937116D01*
X9117606Y6962242D01*
X9117605Y7351971D01*
X9114691Y7377098D01*
X9114640Y7377212D01*
X9114639Y7377288D01*
X9113977Y7379720D01*
X9113315Y7380414D01*
X9113352Y7382016D01*
X9113229Y7382471D01*
X9113364Y7382508D01*
X9113652Y7394676D01*
X9109203Y7405419D01*
X13007106Y7405419D01*
X13007106Y7357107D01*
X13707106Y7357107D01*
X13707106Y8082107D01*
X14207106Y8082107D01*
X14207106Y6132108D01*
X14230413Y6132108D01*
X14230418Y6132109D01*
X14329714Y6142252D01*
X14490588Y6195560D01*
X14634837Y6284534D01*
X14754680Y6404377D01*
X14793292Y6466977D01*
X14839208Y6500135D01*
X14895122Y6491113D01*
X14902900Y6484964D01*
X14902995Y6485088D01*
X14907026Y6482031D01*
X14907028Y6482029D01*
X15022131Y6394743D01*
X15022132Y6394743D01*
X15022133Y6394742D01*
X15053250Y6382471D01*
X15156516Y6341748D01*
X15230820Y6332825D01*
X15240961Y6331607D01*
X15240962Y6331607D01*
X15773251Y6331607D01*
X15782304Y6332695D01*
X15857696Y6341748D01*
X15992081Y6394743D01*
X16053831Y6441570D01*
X16098545Y6456607D01*
X16547805Y6456607D01*
X16600131Y6434933D01*
X16611130Y6420893D01*
X16646458Y6362454D01*
X16762453Y6246459D01*
X16902836Y6161595D01*
X16902838Y6161594D01*
X16964909Y6142252D01*
X17059449Y6112792D01*
X17127512Y6106607D01*
X17127514Y6106607D01*
X18486698Y6106607D01*
X18486700Y6106607D01*
X18554763Y6112792D01*
X18711376Y6161595D01*
X18851759Y6246459D01*
X18967754Y6362454D01*
X19003079Y6420891D01*
X19048698Y6454457D01*
X19066407Y6456607D01*
X22732606Y6456607D01*
X22784932Y6434933D01*
X22806606Y6382607D01*
X22806606Y5712157D01*
X22821738Y5577853D01*
X22821740Y5577844D01*
X22881315Y5407587D01*
X22932873Y5325534D01*
X22977290Y5254845D01*
X23104844Y5127291D01*
X23257584Y5031318D01*
X23357048Y4996514D01*
X23399277Y4958776D01*
X23406606Y4926668D01*
X23406606Y3727915D01*
X23384932Y3675589D01*
X22374676Y2665334D01*
X22322350Y2643660D01*
X22270024Y2665334D01*
X22248843Y2709138D01*
X22247585Y2719991D01*
X22202206Y2822765D01*
X22122765Y2902206D01*
X22019991Y2947585D01*
X22019990Y2947586D01*
X22019988Y2947586D01*
X21998659Y2950060D01*
X21994865Y2950500D01*
X21994864Y2950500D01*
X20405136Y2950500D01*
X20380013Y2947586D01*
X20380007Y2947585D01*
X20277234Y2902206D01*
X20197794Y2822766D01*
X20152414Y2719989D01*
X20149500Y2694865D01*
X20149500Y1105137D01*
X20152414Y1080014D01*
X20152415Y1080009D01*
X20197794Y977235D01*
X20277235Y897794D01*
X20380009Y852415D01*
X20405135Y849500D01*
X21994864Y849501D01*
X22019991Y852415D01*
X22122765Y897794D01*
X22202206Y977235D01*
X22247585Y1080009D01*
X22250500Y1105135D01*
X22250500Y1125500D01*
X22272174Y1177826D01*
X22324500Y1199500D01*
X22668992Y1199500D01*
X22668994Y1199500D01*
X22804328Y1226420D01*
X22931811Y1279225D01*
X23046543Y1355886D01*
X23380280Y1689625D01*
X23432606Y1711298D01*
X23484932Y1689624D01*
X23506606Y1637298D01*
X23506606Y1620496D01*
X23533703Y1449409D01*
X23533706Y1449396D01*
X23587231Y1284665D01*
X23587233Y1284661D01*
X23665873Y1130320D01*
X23684170Y1105136D01*
X23767692Y990179D01*
X23890178Y867693D01*
X23890181Y867691D01*
X23890182Y867690D01*
X24030318Y765875D01*
X24184659Y687235D01*
X24184663Y687233D01*
X24349394Y633708D01*
X24349400Y633707D01*
X24349405Y633705D01*
X24463465Y615640D01*
X24520494Y606607D01*
X24520495Y606607D01*
X24693718Y606607D01*
X24736489Y613382D01*
X24864807Y633705D01*
X24864814Y633708D01*
X24864817Y633708D01*
X25029548Y687233D01*
X25029548Y687234D01*
X25029551Y687234D01*
X25183894Y765875D01*
X25324034Y867693D01*
X25446520Y990179D01*
X25548338Y1130319D01*
X25626979Y1284662D01*
X25680508Y1449406D01*
X25707606Y1620496D01*
X25707606Y1793718D01*
X25680508Y1964808D01*
X25680506Y1964813D01*
X25680505Y1964819D01*
X25626980Y2129550D01*
X25626978Y2129554D01*
X25548338Y2283895D01*
X25446523Y2424031D01*
X25446522Y2424032D01*
X25446520Y2424035D01*
X25324034Y2546521D01*
X25324031Y2546524D01*
X25324029Y2546525D01*
X25183893Y2648340D01*
X25029552Y2726980D01*
X25029548Y2726982D01*
X24864817Y2780507D01*
X24864804Y2780510D01*
X24693718Y2807607D01*
X24693717Y2807607D01*
X24676915Y2807607D01*
X24624589Y2829281D01*
X24602915Y2881607D01*
X24624588Y2933932D01*
X24651220Y2960563D01*
X24727881Y3075295D01*
X24780686Y3202778D01*
X24807606Y3338112D01*
X24807606Y3476100D01*
X24807606Y4926668D01*
X24829280Y4978994D01*
X24857161Y4996514D01*
X24956628Y5031318D01*
X25109368Y5127291D01*
X25236922Y5254845D01*
X25332895Y5407585D01*
X25392474Y5577852D01*
X25407606Y5712153D01*
X25407606Y8602061D01*
X25392474Y8736362D01*
X25346931Y8866517D01*
X25332896Y8906628D01*
X25270452Y9006006D01*
X25236922Y9059369D01*
X25109368Y9186923D01*
X25070160Y9211560D01*
X24956626Y9282898D01*
X24786369Y9342473D01*
X24786362Y9342475D01*
X24786361Y9342475D01*
X24652060Y9357607D01*
X23562152Y9357607D01*
X23427851Y9342475D01*
X23427842Y9342473D01*
X23257585Y9282898D01*
X23104845Y9186924D01*
X22977289Y9059368D01*
X22881315Y8906628D01*
X22821740Y8736371D01*
X22821738Y8736362D01*
X22807285Y8608082D01*
X22806606Y8602058D01*
X22806606Y7931607D01*
X22784932Y7879281D01*
X22732606Y7857607D01*
X19066407Y7857607D01*
X19014081Y7879281D01*
X19003081Y7893322D01*
X18967754Y7951760D01*
X18851759Y8067755D01*
X18743771Y8133036D01*
X18710205Y8178653D01*
X18718727Y8234646D01*
X18749176Y8262658D01*
X18906131Y8340501D01*
X19054472Y8459741D01*
X19173712Y8608082D01*
X19258275Y8778587D01*
X19304209Y8963290D01*
X19307106Y9006006D01*
X19307106Y9207107D01*
X16307106Y9207107D01*
X16307106Y9006006D01*
X16310002Y8963290D01*
X16355936Y8778587D01*
X16440499Y8608082D01*
X16559739Y8459741D01*
X16708080Y8340501D01*
X16865035Y8262658D01*
X16902282Y8219991D01*
X16898451Y8163484D01*
X16870439Y8133035D01*
X16762452Y8067755D01*
X16646459Y7951762D01*
X16646458Y7951760D01*
X16611132Y7893324D01*
X16565514Y7859757D01*
X16547805Y7857607D01*
X16281606Y7857607D01*
X16229280Y7879281D01*
X16207606Y7931607D01*
X16207606Y8731181D01*
X16206575Y8736362D01*
X16180686Y8866517D01*
X16162239Y8911053D01*
X16156606Y8939371D01*
X16156606Y9400255D01*
X16158028Y9414692D01*
X16162687Y9438113D01*
X16162687Y9576101D01*
X16158028Y9599524D01*
X16156606Y9613960D01*
X16156606Y9908209D01*
X16307106Y9908209D01*
X16307106Y9707107D01*
X17557106Y9707107D01*
X18057106Y9707107D01*
X19307106Y9707107D01*
X19307106Y9908209D01*
X19304209Y9950925D01*
X19258275Y10135628D01*
X19173712Y10306133D01*
X19054472Y10454474D01*
X18906131Y10573714D01*
X18735626Y10658277D01*
X18550923Y10704211D01*
X18508208Y10707107D01*
X18057106Y10707107D01*
X18057106Y9707107D01*
X17557106Y9707107D01*
X17557106Y10707107D01*
X17106004Y10707107D01*
X17063288Y10704211D01*
X16878585Y10658277D01*
X16708080Y10573714D01*
X16559739Y10454474D01*
X16440499Y10306133D01*
X16355936Y10135628D01*
X16310002Y9950925D01*
X16307106Y9908209D01*
X16156606Y9908209D01*
X16156606Y10074844D01*
X16162239Y10103163D01*
X16165567Y10111197D01*
X16180686Y10147697D01*
X16207606Y10283031D01*
X16207606Y10421019D01*
X16207606Y11452172D01*
X19700000Y11452172D01*
X19706402Y11392625D01*
X19706403Y11392620D01*
X19756645Y11257913D01*
X19756646Y11257912D01*
X19842811Y11142812D01*
X19957911Y11056647D01*
X19957912Y11056646D01*
X20092619Y11006404D01*
X20092624Y11006403D01*
X20152171Y11000000D01*
X20700000Y11000000D01*
X21200000Y11000000D01*
X21747829Y11000000D01*
X21807375Y11006403D01*
X21807380Y11006404D01*
X21942087Y11056646D01*
X21942088Y11056647D01*
X22057188Y11142812D01*
X22143353Y11257912D01*
X22143354Y11257913D01*
X22193596Y11392620D01*
X22193597Y11392625D01*
X22200000Y11452172D01*
X22200000Y12000000D01*
X21200000Y12000000D01*
X21200000Y11000000D01*
X20700000Y11000000D01*
X20700000Y12000000D01*
X19700000Y12000000D01*
X19700000Y11452172D01*
X16207606Y11452172D01*
X16207606Y12057107D01*
X16837175Y12057107D01*
X16839939Y12021981D01*
X16884700Y11867914D01*
X16966370Y11729818D01*
X17079816Y11616372D01*
X17217912Y11534702D01*
X17357105Y11494262D01*
X17357106Y11494262D01*
X17357106Y12057107D01*
X16837175Y12057107D01*
X16207606Y12057107D01*
X16207606Y12936298D01*
X16229280Y12988624D01*
X16375589Y13134933D01*
X16427915Y13156607D01*
X16552453Y13156607D01*
X16588452Y13144501D01*
X16589561Y13146473D01*
X16593972Y13143993D01*
X16593973Y13143993D01*
X16593974Y13143992D01*
X16726760Y13091628D01*
X16800182Y13082811D01*
X16810203Y13081607D01*
X16984929Y13081607D01*
X17037255Y13059933D01*
X17058929Y13007607D01*
X17037255Y12955281D01*
X16966370Y12884397D01*
X16884700Y12746301D01*
X16839939Y12592234D01*
X16837175Y12557107D01*
X17533106Y12557107D01*
X17585432Y12535433D01*
X17607106Y12483107D01*
X17607106Y12307107D01*
X17783106Y12307107D01*
X17835432Y12285433D01*
X17857106Y12233107D01*
X17857106Y11494262D01*
X17996299Y11534702D01*
X18134395Y11616372D01*
X18227089Y11709066D01*
X18279415Y11730740D01*
X18303856Y11726587D01*
X18410227Y11689366D01*
X18439649Y11686607D01*
X18814562Y11686608D01*
X18843985Y11689366D01*
X18967900Y11732726D01*
X19073529Y11810684D01*
X19151487Y11916313D01*
X19169466Y11967693D01*
X19194845Y12040221D01*
X19194845Y12040223D01*
X19194847Y12040228D01*
X19197606Y12069650D01*
X19197605Y12544563D01*
X19194847Y12573986D01*
X19188462Y12592234D01*
X19151488Y12697900D01*
X19096811Y12771984D01*
X19073529Y12803530D01*
X19073525Y12803533D01*
X19069608Y12807450D01*
X19071144Y12808987D01*
X19045930Y12850849D01*
X19045106Y12861864D01*
X19045106Y13047829D01*
X19700000Y13047829D01*
X19700000Y12500000D01*
X20700000Y12500000D01*
X21200000Y12500000D01*
X22200000Y12500000D01*
X22200000Y12893719D01*
X23006606Y12893719D01*
X23006606Y12720496D01*
X23033703Y12549409D01*
X23033706Y12549396D01*
X23087231Y12384665D01*
X23087233Y12384661D01*
X23164453Y12233107D01*
X23165874Y12230319D01*
X23267692Y12090179D01*
X23390178Y11967693D01*
X23390181Y11967691D01*
X23390182Y11967690D01*
X23530318Y11865875D01*
X23684659Y11787235D01*
X23684663Y11787233D01*
X23849394Y11733708D01*
X23849400Y11733707D01*
X23849405Y11733705D01*
X23963465Y11715640D01*
X24020494Y11706607D01*
X24020495Y11706607D01*
X24193718Y11706607D01*
X24236489Y11713382D01*
X24364807Y11733705D01*
X24364814Y11733708D01*
X24364817Y11733708D01*
X24529548Y11787233D01*
X24529548Y11787234D01*
X24529551Y11787234D01*
X24683894Y11865875D01*
X24824034Y11967693D01*
X24946520Y12090179D01*
X25048338Y12230319D01*
X25126979Y12384662D01*
X25164455Y12500000D01*
X25180505Y12549396D01*
X25180505Y12549399D01*
X25180508Y12549406D01*
X25207606Y12720496D01*
X25207606Y12893718D01*
X25180508Y13064808D01*
X25180506Y13064813D01*
X25180505Y13064819D01*
X25126980Y13229550D01*
X25126978Y13229554D01*
X25048338Y13383895D01*
X24946523Y13524031D01*
X24946522Y13524032D01*
X24946520Y13524035D01*
X24824034Y13646521D01*
X24824031Y13646524D01*
X24824029Y13646525D01*
X24683893Y13748340D01*
X24529552Y13826980D01*
X24529548Y13826982D01*
X24364817Y13880507D01*
X24364804Y13880510D01*
X24193718Y13907607D01*
X24193717Y13907607D01*
X24020495Y13907607D01*
X24020494Y13907607D01*
X23849407Y13880510D01*
X23849394Y13880507D01*
X23684663Y13826982D01*
X23684659Y13826980D01*
X23530318Y13748340D01*
X23390182Y13646525D01*
X23267688Y13524031D01*
X23165873Y13383895D01*
X23087233Y13229554D01*
X23087231Y13229550D01*
X23033706Y13064819D01*
X23033703Y13064806D01*
X23006606Y12893719D01*
X22200000Y12893719D01*
X22200000Y13047829D01*
X22193597Y13107376D01*
X22193596Y13107381D01*
X22143354Y13242088D01*
X22143353Y13242089D01*
X22057188Y13357189D01*
X21942088Y13443354D01*
X21942087Y13443355D01*
X21807380Y13493597D01*
X21807375Y13493598D01*
X21747829Y13500000D01*
X21200000Y13500000D01*
X21200000Y12500000D01*
X20700000Y12500000D01*
X20700000Y13500000D01*
X20152171Y13500000D01*
X20092624Y13493598D01*
X20092619Y13493597D01*
X19957912Y13443355D01*
X19957911Y13443354D01*
X19842811Y13357189D01*
X19756646Y13242089D01*
X19756645Y13242088D01*
X19706403Y13107381D01*
X19706402Y13107376D01*
X19700000Y13047829D01*
X19045106Y13047829D01*
X19045106Y13064000D01*
X19066780Y13116326D01*
X19091958Y13132841D01*
X19120238Y13143992D01*
X19233973Y13230240D01*
X19320221Y13343975D01*
X19372585Y13476761D01*
X19382606Y13560205D01*
X19382606Y14154009D01*
X19372585Y14237453D01*
X19320221Y14370239D01*
X19233973Y14483974D01*
X19172372Y14530688D01*
X19120237Y14570223D01*
X18987452Y14622586D01*
X18904009Y14632607D01*
X18904008Y14632607D01*
X18385204Y14632607D01*
X18385203Y14632607D01*
X18301759Y14622586D01*
X18168974Y14570223D01*
X18055239Y14483975D01*
X18055238Y14483974D01*
X17968990Y14370239D01*
X17925947Y14261087D01*
X17886588Y14220360D01*
X17829959Y14219393D01*
X17789232Y14258752D01*
X17788265Y14261087D01*
X17745221Y14370239D01*
X17658973Y14483974D01*
X17658972Y14483975D01*
X17545237Y14570223D01*
X17412452Y14622586D01*
X17329009Y14632607D01*
X17329008Y14632607D01*
X16810204Y14632607D01*
X16810203Y14632607D01*
X16726759Y14622586D01*
X16593972Y14570222D01*
X16589561Y14567741D01*
X16588452Y14569714D01*
X16552453Y14557607D01*
X16038113Y14557607D01*
X16022686Y14554539D01*
X15929696Y14536043D01*
X15929697Y14536042D01*
X15902781Y14530689D01*
X15902778Y14530688D01*
X15775294Y14477882D01*
X15660563Y14401222D01*
X15660562Y14401220D01*
X14962993Y13703651D01*
X14962991Y13703650D01*
X14886330Y13588918D01*
X14833527Y13461440D01*
X14833524Y13461430D01*
X14810162Y13343976D01*
X14806606Y13326100D01*
X14806606Y10578207D01*
X14803629Y10557428D01*
X14802505Y10553590D01*
X14782526Y10505353D01*
X14770703Y10445913D01*
X14770066Y10442715D01*
X14770064Y10442705D01*
X14756174Y10372873D01*
X14755606Y10370018D01*
X14755606Y9582183D01*
X14755606Y9570019D01*
X14755606Y9570018D01*
X14755606Y8782183D01*
X14755606Y8644195D01*
X14763987Y8602061D01*
X14782524Y8508867D01*
X14782526Y8508861D01*
X14800973Y8464327D01*
X14806606Y8436008D01*
X14806606Y7936564D01*
X14784932Y7884238D01*
X14732606Y7862564D01*
X14680280Y7884238D01*
X14634837Y7929681D01*
X14490588Y8018655D01*
X14329714Y8071963D01*
X14230417Y8082107D01*
X14207106Y8082107D01*
X13707106Y8082107D01*
X13683799Y8082107D01*
X13683792Y8082106D01*
X13584497Y8071963D01*
X13423623Y8018655D01*
X13279374Y7929681D01*
X13159532Y7809839D01*
X13070558Y7665590D01*
X13017250Y7504716D01*
X13007106Y7405419D01*
X9109203Y7405419D01*
X9108421Y7407306D01*
X9113396Y7430889D01*
X9113377Y7431700D01*
X9113229Y7431740D01*
X9113364Y7432240D01*
X9113328Y7433833D01*
X9114655Y7437035D01*
X9114691Y7437116D01*
X9117606Y7462242D01*
X9117605Y7851971D01*
X9114691Y7877098D01*
X9114640Y7877212D01*
X9114639Y7877288D01*
X9113229Y7882471D01*
X9114510Y7882820D01*
X9113377Y7931700D01*
X9113229Y7931740D01*
X9113364Y7932240D01*
X9113328Y7933833D01*
X9114641Y7937003D01*
X9114691Y7937116D01*
X9117606Y7962242D01*
X9117605Y8182608D01*
X9139279Y8234933D01*
X9191605Y8256607D01*
X9254379Y8256607D01*
X9518356Y8256607D01*
X9570682Y8234933D01*
X9587689Y8208469D01*
X9613310Y8139776D01*
X9699560Y8024561D01*
X9802857Y7947233D01*
X9814775Y7938311D01*
X9814776Y7938310D01*
X9898437Y7907107D01*
X9949623Y7888016D01*
X10009233Y7881607D01*
X10504978Y7881608D01*
X10564589Y7888016D01*
X10681712Y7931700D01*
X10699435Y7938310D01*
X10699435Y7938311D01*
X10699437Y7938311D01*
X10814652Y8024561D01*
X10900902Y8139776D01*
X10906204Y8153993D01*
X10944796Y8195446D01*
X11001397Y8197469D01*
X11042851Y8158877D01*
X11046188Y8150149D01*
X11064085Y8092714D01*
X11152031Y7947233D01*
X11272231Y7827033D01*
X11417712Y7739087D01*
X11579996Y7688518D01*
X11580007Y7688516D01*
X11650527Y7682108D01*
X12157106Y7682108D01*
X12163677Y7682108D01*
X12163689Y7682109D01*
X12234208Y7688516D01*
X12234212Y7688517D01*
X12396499Y7739087D01*
X12541980Y7827033D01*
X12662180Y7947233D01*
X12750126Y8092714D01*
X12800695Y8254998D01*
X12800697Y8255008D01*
X12807105Y8325525D01*
X12807106Y8325534D01*
X12807106Y8407107D01*
X12157106Y8407107D01*
X12157106Y7682108D01*
X11650527Y7682108D01*
X11657106Y7682109D01*
X11657106Y8907107D01*
X12157106Y8907107D01*
X12807105Y8907107D01*
X12807105Y8988678D01*
X12807104Y8988691D01*
X12800697Y9059210D01*
X12800696Y9059214D01*
X12750126Y9221501D01*
X12662180Y9366982D01*
X12541980Y9487182D01*
X12396499Y9575128D01*
X12234215Y9625697D01*
X12234205Y9625699D01*
X12163688Y9632107D01*
X12157106Y9632107D01*
X12157106Y8907107D01*
X11657106Y8907107D01*
X11657106Y9632107D01*
X11657105Y9632108D01*
X11650540Y9632107D01*
X11650517Y9632106D01*
X11580003Y9625699D01*
X11579999Y9625698D01*
X11417712Y9575128D01*
X11272231Y9487182D01*
X11152031Y9366982D01*
X11064085Y9221501D01*
X11046188Y9164066D01*
X11009928Y9120557D01*
X10953524Y9115432D01*
X10910015Y9151692D01*
X10906204Y9160222D01*
X10900902Y9174438D01*
X10814652Y9289653D01*
X10699437Y9375903D01*
X10699436Y9375904D01*
X10699435Y9375905D01*
X10564593Y9426197D01*
X10564590Y9426198D01*
X10564589Y9426198D01*
X10504979Y9432607D01*
X10009233Y9432607D01*
X9949620Y9426198D01*
X9814776Y9375905D01*
X9814775Y9375904D01*
X9699560Y9289653D01*
X9613310Y9174439D01*
X9608008Y9160222D01*
X9587689Y9105747D01*
X9549098Y9064295D01*
X9518356Y9057607D01*
X9191606Y9057607D01*
X9139280Y9079281D01*
X9117606Y9131607D01*
X9117605Y9351971D01*
X9115864Y9366982D01*
X9114691Y9377098D01*
X9103599Y9402217D01*
X9103557Y9404064D01*
X9102281Y9405401D01*
X9102908Y9432122D01*
X9102291Y9458838D01*
X9103611Y9462023D01*
X9103832Y9462523D01*
X9144809Y9501620D01*
X9171515Y9506607D01*
X9309833Y9506607D01*
X9309834Y9506607D01*
X9411695Y9533900D01*
X9503020Y9586627D01*
X9870480Y9954087D01*
X10027586Y10111193D01*
X10048417Y10147273D01*
X10080313Y10202519D01*
X10107605Y10304377D01*
X10107606Y10304377D01*
X10107606Y10310563D01*
X10129279Y10362888D01*
X10200299Y10433908D01*
X10252622Y10455581D01*
X10279767Y10450423D01*
X10300542Y10442230D01*
X10369851Y10433907D01*
X10389002Y10431607D01*
X10389004Y10431607D01*
X11225210Y10431607D01*
X11244361Y10433907D01*
X11313670Y10442230D01*
X11454448Y10497746D01*
X11575028Y10589185D01*
X11666467Y10709765D01*
X11721983Y10850543D01*
X11732606Y10939003D01*
X12681605Y10939003D01*
X12689579Y10872607D01*
X12692229Y10850543D01*
X12708286Y10809826D01*
X12747744Y10709766D01*
X12786790Y10658277D01*
X12839184Y10589185D01*
X12959764Y10497746D01*
X13100542Y10442230D01*
X13169851Y10433907D01*
X13189002Y10431607D01*
X13189004Y10431607D01*
X14025210Y10431607D01*
X14044361Y10433907D01*
X14113670Y10442230D01*
X14254448Y10497746D01*
X14375028Y10589185D01*
X14466467Y10709765D01*
X14521983Y10850543D01*
X14532606Y10939005D01*
X14532606Y12275209D01*
X14521983Y12363671D01*
X14466467Y12504449D01*
X14375028Y12625029D01*
X14278934Y12697900D01*
X14254447Y12716469D01*
X14169185Y12750092D01*
X14113670Y12771984D01*
X14084182Y12775525D01*
X14025210Y12782607D01*
X14025208Y12782607D01*
X13189004Y12782607D01*
X13189002Y12782607D01*
X13100542Y12771984D01*
X12959764Y12716469D01*
X12839184Y12625030D01*
X12839183Y12625029D01*
X12747744Y12504449D01*
X12692229Y12363671D01*
X12682834Y12285433D01*
X12681606Y12275209D01*
X12681606Y10939005D01*
X12681606Y10939003D01*
X12681605Y10939003D01*
X11732606Y10939003D01*
X11732606Y10939005D01*
X11732606Y12275209D01*
X11721983Y12363671D01*
X11666467Y12504449D01*
X11575028Y12625029D01*
X11478934Y12697900D01*
X11454447Y12716469D01*
X11369185Y12750092D01*
X11313670Y12771984D01*
X11284182Y12775525D01*
X11225210Y12782607D01*
X11225208Y12782607D01*
X10389004Y12782607D01*
X10389002Y12782607D01*
X10300542Y12771984D01*
X10159764Y12716469D01*
X10039184Y12625030D01*
X10039183Y12625029D01*
X9947744Y12504449D01*
X9892229Y12363671D01*
X9881606Y12275212D01*
X9881606Y11278652D01*
X9859932Y11226326D01*
X9443432Y10809826D01*
X9391106Y10788152D01*
X9338780Y10809826D01*
X9317106Y10862152D01*
X9317106Y11004936D01*
X9310703Y11064483D01*
X9310702Y11064488D01*
X9260460Y11199195D01*
X9260459Y11199196D01*
X9174294Y11314296D01*
X9059194Y11400461D01*
X9059193Y11400462D01*
X8924486Y11450704D01*
X8924481Y11450705D01*
X8864935Y11457107D01*
X8748382Y11457107D01*
X8700097Y11477107D01*
X7894094Y11477107D01*
X7911311Y11487047D01*
X7967166Y11542902D01*
X8006662Y11611311D01*
X8027106Y11687611D01*
X8027106Y11766603D01*
X8006662Y11842903D01*
X7967166Y11911312D01*
X7911311Y11967167D01*
X7894094Y11977107D01*
X8696969Y11977107D01*
X8696969Y11977108D01*
X8688678Y12018790D01*
X8688675Y12018801D01*
X8613296Y12200783D01*
X8503859Y12364567D01*
X8364565Y12503861D01*
X8200781Y12613298D01*
X8018799Y12688677D01*
X8018788Y12688680D01*
X7825596Y12727107D01*
X7427106Y12727107D01*
X7427106Y12027107D01*
X6927106Y12027107D01*
X6927106Y12727107D01*
X6528616Y12727107D01*
X6335423Y12688680D01*
X6335412Y12688677D01*
X6153430Y12613298D01*
X5989646Y12503861D01*
X5850352Y12364567D01*
X5740915Y12200783D01*
X5665536Y12018801D01*
X5665533Y12018790D01*
X5657242Y11977108D01*
X4266969Y11977108D01*
X4258678Y12018790D01*
X4258675Y12018801D01*
X4183296Y12200783D01*
X4073859Y12364567D01*
X3934565Y12503861D01*
X3770781Y12613298D01*
X3588799Y12688677D01*
X3588788Y12688680D01*
X3395596Y12727107D01*
X3247106Y12727107D01*
X3247106Y12027107D01*
X2747106Y12027107D01*
X2747106Y12727107D01*
X2598616Y12727107D01*
X2405423Y12688680D01*
X2405412Y12688677D01*
X2223430Y12613298D01*
X2059646Y12503861D01*
X1920352Y12364567D01*
X1810915Y12200783D01*
X1735536Y12018801D01*
X1735533Y12018790D01*
X1727242Y11977108D01*
X7606Y11977108D01*
X7606Y14293719D01*
X906606Y14293719D01*
X906606Y14120496D01*
X933703Y13949409D01*
X933706Y13949396D01*
X987231Y13784665D01*
X987233Y13784661D01*
X1065873Y13630320D01*
X1165208Y13493597D01*
X1167692Y13490179D01*
X1290178Y13367693D01*
X1290181Y13367691D01*
X1290182Y13367690D01*
X1430318Y13265875D01*
X1584659Y13187235D01*
X1584663Y13187233D01*
X1749394Y13133708D01*
X1749400Y13133707D01*
X1749405Y13133705D01*
X1855994Y13116823D01*
X1920494Y13106607D01*
X1920495Y13106607D01*
X2093718Y13106607D01*
X2158218Y13116823D01*
X2264807Y13133705D01*
X2264814Y13133708D01*
X2264817Y13133708D01*
X2429548Y13187233D01*
X2429548Y13187234D01*
X2429551Y13187234D01*
X2583894Y13265875D01*
X2724034Y13367693D01*
X2846520Y13490179D01*
X2948338Y13630319D01*
X3026979Y13784662D01*
X3080508Y13949406D01*
X3107606Y14120496D01*
X3107606Y14293718D01*
X3080508Y14464808D01*
X3080506Y14464813D01*
X3080505Y14464819D01*
X3026980Y14629550D01*
X3026978Y14629554D01*
X2948338Y14783895D01*
X2846523Y14924031D01*
X2846522Y14924032D01*
X2846520Y14924035D01*
X2724034Y15046521D01*
X2724031Y15046524D01*
X2724029Y15046525D01*
X2583893Y15148340D01*
X2429552Y15226980D01*
X2429548Y15226982D01*
X2264817Y15280507D01*
X2264804Y15280510D01*
X2093718Y15307607D01*
X2093717Y15307607D01*
X1920495Y15307607D01*
X1920494Y15307607D01*
X1749407Y15280510D01*
X1749394Y15280507D01*
X1584663Y15226982D01*
X1584659Y15226980D01*
X1430318Y15148340D01*
X1290182Y15046525D01*
X1167688Y14924031D01*
X1065873Y14783895D01*
X987233Y14629554D01*
X987231Y14629550D01*
X933706Y14464819D01*
X933703Y14464806D01*
X906606Y14293719D01*
X7606Y14293719D01*
X7606Y15003469D01*
X7962Y15010722D01*
X7962Y15010723D01*
X20333Y15136327D01*
X23160Y15150541D01*
X58738Y15267829D01*
X64284Y15281217D01*
X122060Y15389307D01*
X130112Y15401358D01*
X207862Y15496096D01*
X218119Y15506352D01*
X312855Y15584101D01*
X324906Y15592153D01*
X432996Y15649929D01*
X446384Y15655475D01*
X563672Y15691053D01*
X577886Y15693880D01*
X703492Y15706251D01*
X710745Y15706607D01*
X754701Y15706607D01*
X25559511Y15706607D01*
X25603467Y15706607D01*
X25610720Y15706251D01*
G37*
%TD.AperFunction*%
%TD*%
M02*
